<svg width="744" height="302" viewBox="0 0 744 302" fill="none" xmlns="http://www.w3.org/2000/svg">
<rect width="744" height="302" fill="#EAEAEC"/>
<path opacity="0.25" d="M284.126 232.658V218.258H286.216V232.658H284.126ZM302.159 232.658L302.169 225.928C302.169 225.148 301.969 224.542 301.569 224.108C301.169 223.668 300.642 223.448 299.989 223.448C299.589 223.448 299.222 223.542 298.889 223.728C298.562 223.908 298.296 224.182 298.089 224.548C297.889 224.908 297.789 225.362 297.789 225.908L296.779 225.398C296.766 224.638 296.926 223.972 297.259 223.398C297.599 222.825 298.059 222.382 298.639 222.068C299.219 221.748 299.869 221.588 300.589 221.588C301.756 221.588 302.659 221.938 303.299 222.638C303.939 223.338 304.259 224.268 304.259 225.428L304.249 232.658H302.159ZM289.209 232.658V221.858H291.069V224.978H291.309V232.658H289.209ZM295.689 232.658L295.699 225.968C295.699 225.182 295.499 224.565 295.099 224.118C294.706 223.672 294.176 223.448 293.509 223.448C292.849 223.448 292.316 223.675 291.909 224.128C291.509 224.582 291.309 225.175 291.309 225.908L290.309 225.268C290.309 224.562 290.479 223.932 290.819 223.378C291.159 222.825 291.619 222.388 292.199 222.068C292.779 221.748 293.436 221.588 294.169 221.588C294.936 221.588 295.589 221.752 296.129 222.078C296.669 222.398 297.079 222.848 297.359 223.428C297.646 224.008 297.789 224.682 297.789 225.448L297.779 232.658H295.689ZM309.906 232.958C309.106 232.958 308.436 232.812 307.896 232.518C307.356 232.218 306.946 231.825 306.666 231.338C306.392 230.845 306.256 230.305 306.256 229.718C306.256 229.172 306.352 228.692 306.546 228.278C306.739 227.865 307.026 227.515 307.406 227.228C307.786 226.935 308.252 226.698 308.806 226.518C309.286 226.378 309.829 226.255 310.436 226.148C311.042 226.042 311.679 225.942 312.346 225.848C313.019 225.755 313.686 225.662 314.346 225.568L313.586 225.988C313.599 225.142 313.419 224.515 313.046 224.108C312.679 223.695 312.046 223.488 311.146 223.488C310.579 223.488 310.059 223.622 309.586 223.888C309.112 224.148 308.782 224.582 308.596 225.188L306.646 224.588C306.912 223.662 307.419 222.925 308.166 222.378C308.919 221.832 309.919 221.558 311.166 221.558C312.132 221.558 312.972 221.725 313.686 222.058C314.406 222.385 314.932 222.905 315.266 223.618C315.439 223.972 315.546 224.345 315.586 224.738C315.626 225.132 315.646 225.555 315.646 226.008V232.658H313.796V230.188L314.156 230.508C313.709 231.335 313.139 231.952 312.446 232.358C311.759 232.758 310.912 232.958 309.906 232.958ZM310.276 231.248C310.869 231.248 311.379 231.145 311.806 230.938C312.232 230.725 312.576 230.455 312.836 230.128C313.096 229.802 313.266 229.462 313.346 229.108C313.459 228.788 313.522 228.428 313.536 228.028C313.556 227.628 313.566 227.308 313.566 227.068L314.246 227.318C313.586 227.418 312.986 227.508 312.446 227.588C311.906 227.668 311.416 227.748 310.976 227.828C310.542 227.902 310.156 227.992 309.816 228.098C309.529 228.198 309.272 228.318 309.046 228.458C308.826 228.598 308.649 228.768 308.516 228.968C308.389 229.168 308.326 229.412 308.326 229.698C308.326 229.978 308.396 230.238 308.536 230.478C308.676 230.712 308.889 230.898 309.176 231.038C309.462 231.178 309.829 231.248 310.276 231.248ZM322.692 237.758C322.112 237.758 321.549 237.668 321.002 237.488C320.462 237.308 319.969 237.042 319.522 236.688C319.076 236.342 318.706 235.912 318.412 235.398L320.342 234.418C320.576 234.878 320.909 235.215 321.342 235.428C321.776 235.642 322.232 235.748 322.712 235.748C323.306 235.748 323.812 235.642 324.232 235.428C324.652 235.222 324.969 234.908 325.182 234.488C325.402 234.068 325.509 233.548 325.502 232.928V229.908H325.752V221.858H327.602V232.948C327.602 233.235 327.592 233.508 327.572 233.768C327.552 234.028 327.516 234.288 327.462 234.548C327.309 235.275 327.016 235.875 326.582 236.348C326.156 236.822 325.609 237.175 324.942 237.408C324.282 237.642 323.532 237.758 322.692 237.758ZM322.532 232.958C321.526 232.958 320.656 232.708 319.922 232.208C319.196 231.708 318.632 231.028 318.232 230.168C317.839 229.302 317.642 228.328 317.642 227.248C317.642 226.162 317.842 225.192 318.242 224.338C318.642 223.478 319.209 222.802 319.942 222.308C320.682 221.808 321.559 221.558 322.572 221.558C323.592 221.558 324.449 221.808 325.142 222.308C325.842 222.802 326.369 223.478 326.722 224.338C327.082 225.198 327.262 226.168 327.262 227.248C327.262 228.328 327.082 229.298 326.722 230.158C326.362 231.018 325.832 231.702 325.132 232.208C324.432 232.708 323.566 232.958 322.532 232.958ZM322.822 231.068C323.509 231.068 324.069 230.905 324.502 230.578C324.936 230.252 325.252 229.802 325.452 229.228C325.652 228.655 325.752 227.995 325.752 227.248C325.752 226.502 325.649 225.842 325.442 225.268C325.242 224.695 324.929 224.248 324.502 223.928C324.082 223.608 323.546 223.448 322.892 223.448C322.199 223.448 321.629 223.618 321.182 223.958C320.736 224.298 320.402 224.755 320.182 225.328C319.969 225.902 319.862 226.542 319.862 227.248C319.862 227.962 319.969 228.608 320.182 229.188C320.402 229.762 320.729 230.218 321.162 230.558C321.602 230.898 322.156 231.068 322.822 231.068ZM335.2 232.958C334.127 232.958 333.184 232.725 332.37 232.258C331.564 231.785 330.934 231.128 330.48 230.288C330.034 229.442 329.81 228.462 329.81 227.348C329.81 226.168 330.03 225.145 330.47 224.278C330.917 223.412 331.537 222.742 332.33 222.268C333.124 221.795 334.047 221.558 335.1 221.558C336.2 221.558 337.137 221.815 337.91 222.328C338.684 222.835 339.26 223.558 339.64 224.498C340.027 225.438 340.18 226.555 340.1 227.848H338.01V227.088C337.997 225.835 337.757 224.908 337.29 224.308C336.83 223.708 336.127 223.408 335.18 223.408C334.134 223.408 333.347 223.738 332.82 224.398C332.294 225.058 332.03 226.012 332.03 227.258C332.03 228.445 332.294 229.365 332.82 230.018C333.347 230.665 334.107 230.988 335.1 230.988C335.754 230.988 336.317 230.842 336.79 230.548C337.27 230.248 337.644 229.822 337.91 229.268L339.96 229.918C339.54 230.885 338.904 231.635 338.05 232.168C337.197 232.695 336.247 232.958 335.2 232.958ZM331.35 227.848V226.218H339.06V227.848H331.35ZM350.638 232.958C349.631 232.958 348.761 232.708 348.028 232.208C347.301 231.708 346.738 231.028 346.338 230.168C345.945 229.302 345.748 228.328 345.748 227.248C345.748 226.162 345.948 225.192 346.348 224.338C346.748 223.478 347.315 222.802 348.048 222.308C348.788 221.808 349.665 221.558 350.678 221.558C351.698 221.558 352.555 221.808 353.248 222.308C353.948 222.802 354.475 223.478 354.828 224.338C355.188 225.198 355.368 226.168 355.368 227.248C355.368 228.328 355.188 229.298 354.828 230.158C354.468 231.018 353.938 231.702 353.238 232.208C352.538 232.708 351.671 232.958 350.638 232.958ZM350.928 231.068C351.615 231.068 352.175 230.905 352.608 230.578C353.041 230.252 353.358 229.802 353.558 229.228C353.758 228.655 353.858 227.995 353.858 227.248C353.858 226.502 353.755 225.842 353.548 225.268C353.348 224.695 353.035 224.248 352.608 223.928C352.188 223.608 351.651 223.448 350.998 223.448C350.305 223.448 349.735 223.618 349.288 223.958C348.841 224.298 348.508 224.755 348.288 225.328C348.075 225.902 347.968 226.542 347.968 227.248C347.968 227.962 348.075 228.608 348.288 229.188C348.508 229.762 348.835 230.218 349.268 230.558C349.708 230.898 350.261 231.068 350.928 231.068ZM353.858 232.658V224.888H353.618V218.258H355.718V232.658H353.858ZM358.716 220.088V218.058H360.806V220.088H358.716ZM358.716 232.658V221.858H360.806V232.658H358.716ZM367.939 232.948C366.625 232.948 365.555 232.658 364.729 232.078C363.902 231.498 363.395 230.682 363.209 229.628L365.349 229.298C365.482 229.858 365.789 230.302 366.269 230.628C366.755 230.948 367.359 231.108 368.079 231.108C368.732 231.108 369.242 230.975 369.609 230.708C369.982 230.442 370.169 230.075 370.169 229.608C370.169 229.335 370.102 229.115 369.969 228.948C369.842 228.775 369.572 228.612 369.159 228.458C368.745 228.305 368.115 228.115 367.269 227.888C366.342 227.648 365.605 227.392 365.059 227.118C364.519 226.838 364.132 226.515 363.899 226.148C363.672 225.775 363.559 225.325 363.559 224.798C363.559 224.145 363.732 223.575 364.079 223.088C364.425 222.602 364.912 222.225 365.539 221.958C366.172 221.692 366.912 221.558 367.759 221.558C368.585 221.558 369.322 221.688 369.969 221.948C370.615 222.208 371.139 222.578 371.539 223.058C371.939 223.532 372.179 224.088 372.259 224.728L370.119 225.118C370.045 224.598 369.802 224.188 369.389 223.888C368.975 223.588 368.439 223.425 367.779 223.398C367.145 223.372 366.632 223.478 366.239 223.718C365.845 223.952 365.649 224.275 365.649 224.688C365.649 224.928 365.722 225.132 365.869 225.298C366.022 225.465 366.315 225.625 366.749 225.778C367.182 225.932 367.822 226.115 368.669 226.328C369.575 226.562 370.295 226.822 370.829 227.108C371.362 227.388 371.742 227.725 371.969 228.118C372.202 228.505 372.319 228.975 372.319 229.528C372.319 230.595 371.929 231.432 371.149 232.038C370.375 232.645 369.305 232.948 367.939 232.948ZM379.601 232.958C378.568 232.958 377.701 232.708 377.001 232.208C376.301 231.702 375.771 231.018 375.411 230.158C375.051 229.298 374.871 228.328 374.871 227.248C374.871 226.168 375.048 225.198 375.401 224.338C375.761 223.478 376.288 222.802 376.981 222.308C377.681 221.808 378.541 221.558 379.561 221.558C380.575 221.558 381.448 221.808 382.181 222.308C382.921 222.802 383.491 223.478 383.891 224.338C384.291 225.192 384.491 226.162 384.491 227.248C384.491 228.328 384.291 229.302 383.891 230.168C383.498 231.028 382.935 231.708 382.201 232.208C381.475 232.708 380.608 232.958 379.601 232.958ZM374.521 237.458V221.858H376.381V229.628H376.621V237.458H374.521ZM379.311 231.068C379.978 231.068 380.528 230.898 380.961 230.558C381.401 230.218 381.728 229.762 381.941 229.188C382.161 228.608 382.271 227.962 382.271 227.248C382.271 226.542 382.161 225.902 381.941 225.328C381.728 224.755 381.398 224.298 380.951 223.958C380.505 223.618 379.935 223.448 379.241 223.448C378.588 223.448 378.048 223.608 377.621 223.928C377.201 224.248 376.888 224.695 376.681 225.268C376.481 225.842 376.381 226.502 376.381 227.248C376.381 227.995 376.481 228.655 376.681 229.228C376.881 229.802 377.198 230.252 377.631 230.578C378.065 230.905 378.625 231.068 379.311 231.068ZM386.899 232.658V217.958H388.989V232.658H386.899ZM395.042 232.958C394.242 232.958 393.572 232.812 393.032 232.518C392.492 232.218 392.082 231.825 391.802 231.338C391.529 230.845 391.392 230.305 391.392 229.718C391.392 229.172 391.489 228.692 391.682 228.278C391.876 227.865 392.162 227.515 392.542 227.228C392.922 226.935 393.389 226.698 393.942 226.518C394.422 226.378 394.966 226.255 395.572 226.148C396.179 226.042 396.816 225.942 397.482 225.848C398.156 225.755 398.822 225.662 399.482 225.568L398.722 225.988C398.736 225.142 398.556 224.515 398.182 224.108C397.816 223.695 397.182 223.488 396.282 223.488C395.716 223.488 395.196 223.622 394.722 223.888C394.249 224.148 393.919 224.582 393.732 225.188L391.782 224.588C392.049 223.662 392.556 222.925 393.302 222.378C394.056 221.832 395.056 221.558 396.302 221.558C397.269 221.558 398.109 221.725 398.822 222.058C399.542 222.385 400.069 222.905 400.402 223.618C400.576 223.972 400.682 224.345 400.722 224.738C400.762 225.132 400.782 225.555 400.782 226.008V232.658H398.932V230.188L399.292 230.508C398.846 231.335 398.276 231.952 397.582 232.358C396.896 232.758 396.049 232.958 395.042 232.958ZM395.412 231.248C396.006 231.248 396.516 231.145 396.942 230.938C397.369 230.725 397.712 230.455 397.972 230.128C398.232 229.802 398.402 229.462 398.482 229.108C398.596 228.788 398.659 228.428 398.672 228.028C398.692 227.628 398.702 227.308 398.702 227.068L399.382 227.318C398.722 227.418 398.122 227.508 397.582 227.588C397.042 227.668 396.552 227.748 396.112 227.828C395.679 227.902 395.292 227.992 394.952 228.098C394.666 228.198 394.409 228.318 394.182 228.458C393.962 228.598 393.786 228.768 393.652 228.968C393.526 229.168 393.462 229.412 393.462 229.698C393.462 229.978 393.532 230.238 393.672 230.478C393.812 230.712 394.026 230.898 394.312 231.038C394.599 231.178 394.966 231.248 395.412 231.248ZM404.234 237.458L406.324 231.768L406.354 233.448L401.644 221.858H403.824L407.344 230.808H406.704L410.064 221.858H412.184L406.224 237.458H404.234ZM425.334 232.658V227.348C425.334 226.928 425.297 226.498 425.224 226.058C425.157 225.612 425.024 225.198 424.824 224.818C424.631 224.438 424.354 224.132 423.994 223.898C423.641 223.665 423.177 223.548 422.604 223.548C422.231 223.548 421.877 223.612 421.544 223.738C421.211 223.858 420.917 224.055 420.664 224.328C420.417 224.602 420.221 224.962 420.074 225.408C419.934 225.855 419.864 226.398 419.864 227.038L418.564 226.548C418.564 225.568 418.747 224.705 419.114 223.958C419.481 223.205 420.007 222.618 420.694 222.198C421.381 221.778 422.211 221.568 423.184 221.568C423.931 221.568 424.557 221.688 425.064 221.928C425.571 222.168 425.981 222.485 426.294 222.878C426.614 223.265 426.857 223.688 427.024 224.148C427.191 224.608 427.304 225.058 427.364 225.498C427.424 225.938 427.454 226.325 427.454 226.658V232.658H425.334ZM417.744 232.658V218.258H419.614V226.028H419.864V232.658H417.744ZM434.849 232.958C433.775 232.958 432.832 232.725 432.019 232.258C431.212 231.785 430.582 231.128 430.129 230.288C429.682 229.442 429.459 228.462 429.459 227.348C429.459 226.168 429.679 225.145 430.119 224.278C430.565 223.412 431.185 222.742 431.979 222.268C432.772 221.795 433.695 221.558 434.749 221.558C435.849 221.558 436.785 221.815 437.559 222.328C438.332 222.835 438.909 223.558 439.289 224.498C439.675 225.438 439.829 226.555 439.749 227.848H437.659V227.088C437.645 225.835 437.405 224.908 436.939 224.308C436.479 223.708 435.775 223.408 434.829 223.408C433.782 223.408 432.995 223.738 432.469 224.398C431.942 225.058 431.679 226.012 431.679 227.258C431.679 228.445 431.942 229.365 432.469 230.018C432.995 230.665 433.755 230.988 434.749 230.988C435.402 230.988 435.965 230.842 436.439 230.548C436.919 230.248 437.292 229.822 437.559 229.268L439.609 229.918C439.189 230.885 438.552 231.635 437.699 232.168C436.845 232.695 435.895 232.958 434.849 232.958ZM430.999 227.848V226.218H438.709V227.848H430.999ZM441.992 232.658V221.858H443.852V224.478L443.592 224.138C443.726 223.792 443.899 223.475 444.112 223.188C444.326 222.895 444.572 222.655 444.852 222.468C445.126 222.268 445.429 222.115 445.762 222.008C446.102 221.895 446.449 221.828 446.802 221.808C447.156 221.782 447.496 221.798 447.822 221.858V223.818C447.469 223.725 447.076 223.698 446.642 223.738C446.216 223.778 445.822 223.915 445.462 224.148C445.122 224.368 444.852 224.635 444.652 224.948C444.459 225.262 444.319 225.612 444.232 225.998C444.146 226.378 444.102 226.782 444.102 227.208V232.658H441.992ZM454.321 232.958C453.248 232.958 452.305 232.725 451.491 232.258C450.685 231.785 450.055 231.128 449.601 230.288C449.155 229.442 448.931 228.462 448.931 227.348C448.931 226.168 449.151 225.145 449.591 224.278C450.038 223.412 450.658 222.742 451.451 222.268C452.245 221.795 453.168 221.558 454.221 221.558C455.321 221.558 456.258 221.815 457.031 222.328C457.805 222.835 458.381 223.558 458.761 224.498C459.148 225.438 459.301 226.555 459.221 227.848H457.131V227.088C457.118 225.835 456.878 224.908 456.411 224.308C455.951 223.708 455.248 223.408 454.301 223.408C453.255 223.408 452.468 223.738 451.941 224.398C451.415 225.058 451.151 226.012 451.151 227.258C451.151 228.445 451.415 229.365 451.941 230.018C452.468 230.665 453.228 230.988 454.221 230.988C454.875 230.988 455.438 230.842 455.911 230.548C456.391 230.248 456.765 229.822 457.031 229.268L459.081 229.918C458.661 230.885 458.025 231.635 457.171 232.168C456.318 232.695 455.368 232.958 454.321 232.958ZM450.471 227.848V226.218H458.181V227.848H450.471Z" fill="black"/>
<path d="M402.621 43.5938H297.25C292.648 43.5938 288.917 46.7836 288.917 50.7188V168.281C288.917 172.216 292.648 175.406 297.25 175.406H434.75C439.353 175.406 443.083 172.216 443.083 168.281V74.0977" stroke="#BBBBBD" stroke-linecap="round" stroke-linejoin="round"/>
<path d="M444.716 36.4392H405.882C404.582 36.4392 403.528 37.3402 403.528 38.4517V71.6549C403.528 72.7664 404.582 73.6673 405.882 73.6673H444.716C446.016 73.6673 447.07 72.7664 447.07 71.6549V38.4517C447.07 37.3402 446.016 36.4392 444.716 36.4392Z" stroke="#BBBBBD" stroke-linecap="round" stroke-linejoin="round"/>
<path d="M288.98 150.543C288.98 150.543 305.801 140.368 314.963 136.411C321.36 133.649 327.871 129.299 335.014 129.783C342.723 130.305 347.725 137.678 355.065 139.757C358.53 140.739 362.331 141.24 365.947 140.812C370.267 140.3 374.361 138.556 378.058 136.577C387.343 131.605 393.309 122.873 402.535 117.82C405.83 116.015 409.398 113.99 413.307 113.832C423.362 113.425 432.136 120.906 442.027 121.808" stroke="#BBBBBD" stroke-linecap="round" stroke-linejoin="round"/>
<path d="M324.248 85.341C333.375 85.341 340.773 79.0155 340.773 71.2125C340.773 63.4095 333.375 57.084 324.248 57.084C315.122 57.084 307.724 63.4095 307.724 71.2125C307.724 79.0155 315.122 85.341 324.248 85.341Z" stroke="#BBBBBD" stroke-linecap="round" stroke-linejoin="round"/>
<path d="M417.716 53.247L425.29 46.7715V63.3724" stroke="#BBBBBD" stroke-linecap="round" stroke-linejoin="round"/>
<path d="M432.882 53.2087L425.308 46.7332V63.334" stroke="#BBBBBD" stroke-linecap="round" stroke-linejoin="round"/>
</svg>
