<svg width="48" height="44" viewBox="0 0 48 44" fill="none" xmlns="http://www.w3.org/2000/svg">
<path d="M24.0836 0C30.0812 0 36.0789 0 42.0765 0C45.7313 0 47.9805 2.19908 47.9805 5.75427C47.9805 16.6031 47.9805 27.4336 47.9805 38.2824C47.9805 41.7826 45.7126 44 42.114 44C30.025 44 17.936 44 5.84693 44C2.24833 44 -0.0195312 41.8009 -0.0195312 38.3007C-0.000788571 27.4519 -0.000788571 16.6031 -0.000788571 5.75427C-0.000788571 2.19908 2.24833 0 5.90315 0C11.9758 0 18.0297 0 24.0836 0ZM24.4022 39.0704C29.875 39.0704 35.3292 39.0704 40.802 39.0521C42.3389 39.0521 42.8262 38.1908 41.9828 36.9813C40.0898 34.2874 38.178 31.6118 36.2288 28.9546C35.3479 27.7634 34.0359 27.6901 32.9114 28.7164C32.3491 29.2295 31.8055 29.7976 31.262 30.3474C29.4814 32.1066 28.3194 32.0333 26.7638 30.0358C24.0461 26.5723 21.3471 23.0904 18.6294 19.6268C18.4233 19.3519 18.2171 19.0954 17.9734 18.8571C17.1862 18.1058 16.3053 18.1974 15.6681 19.077C15.4807 19.3153 15.3495 19.6085 15.2183 19.8834C12.3694 25.3811 9.53923 30.8788 6.69035 36.3765C6.54041 36.6697 6.37172 36.9813 6.29675 37.2928C6.0531 38.1175 6.50292 38.8505 7.38383 38.9971C7.77742 39.0704 8.18976 39.0521 8.6021 39.0521C13.8313 39.0704 19.1167 39.0704 24.4022 39.0704ZM25.8266 13.0296C25.8266 15.8701 28.1507 18.1424 31.0558 18.1424C33.9422 18.1424 36.285 15.8517 36.285 13.0296C36.285 10.2074 33.9235 7.89838 31.0558 7.89838C28.1507 7.89838 25.8079 10.2074 25.8266 13.0296Z" fill="#DCDCDC"/>
</svg>
