<svg width="528" height="351" viewBox="0 0 528 351" fill="none" xmlns="http://www.w3.org/2000/svg">
<rect width="528" height="351" fill="#EAEAEC"/>
<g clip-path="url(#clip0_2303_503)">
<path d="M353.375 128.939C353.375 177.219 313.343 216.378 263.937 216.378C214.532 216.378 174.5 177.219 174.5 128.939C174.5 80.6582 214.532 41.5 263.937 41.5C313.343 41.5 353.375 80.6582 353.375 128.939Z" fill="#EAEAEC" stroke="#BBBBBD"/>
<path d="M263.937 163.796C250.178 163.796 236.418 163.796 222.659 163.796C214.153 163.796 210.275 157.314 214.528 150.098C228.288 126.615 242.172 103.254 256.057 79.7713C260.06 73.0444 267.815 72.9221 271.818 79.7713C285.703 103.254 299.587 126.737 313.472 150.343C317.475 157.192 313.597 163.796 305.591 163.796C291.707 163.796 277.822 163.796 263.937 163.796ZM269.817 117.687C269.817 114.017 269.817 110.348 269.817 106.801C269.817 103.01 267.815 101.053 264.063 100.93C260.185 100.93 258.183 102.887 258.058 106.801C258.058 114.017 258.058 121.233 258.058 128.327C258.058 131.996 260.31 134.198 263.812 134.32C267.44 134.32 269.691 132.119 269.817 128.327C269.942 124.78 269.817 121.233 269.817 117.687ZM269.817 147.04C269.817 143.983 267.065 141.292 263.937 141.414C260.81 141.414 258.058 144.227 258.183 147.285C258.309 150.22 260.935 152.789 263.937 152.789C266.94 152.789 269.817 149.976 269.817 147.04Z" fill="#BBBBBD"/>
</g>
<path opacity="0.25" d="M175.896 267V252.6H178.016L185.106 263.3V252.6H187.226V267H185.106L178.016 256.29V267H175.896ZM194.707 267.3C193.627 267.3 192.691 267.057 191.897 266.57C191.104 266.083 190.491 265.413 190.057 264.56C189.631 263.7 189.417 262.71 189.417 261.59C189.417 260.463 189.637 259.473 190.077 258.62C190.517 257.76 191.134 257.093 191.927 256.62C192.721 256.14 193.647 255.9 194.707 255.9C195.787 255.9 196.724 256.143 197.517 256.63C198.311 257.117 198.924 257.787 199.357 258.64C199.791 259.493 200.007 260.477 200.007 261.59C200.007 262.717 199.787 263.71 199.347 264.57C198.914 265.423 198.301 266.093 197.507 266.58C196.714 267.06 195.781 267.3 194.707 267.3ZM194.707 265.33C195.741 265.33 196.511 264.983 197.017 264.29C197.531 263.59 197.787 262.69 197.787 261.59C197.787 260.463 197.527 259.563 197.007 258.89C196.494 258.21 195.727 257.87 194.707 257.87C194.007 257.87 193.431 258.03 192.977 258.35C192.524 258.663 192.187 259.1 191.967 259.66C191.747 260.213 191.637 260.857 191.637 261.59C191.637 262.723 191.897 263.63 192.417 264.31C192.937 264.99 193.701 265.33 194.707 265.33ZM206.409 267V252.6H208.499V267H206.409ZM224.442 267L224.452 260.27C224.452 259.49 224.252 258.883 223.852 258.45C223.452 258.01 222.925 257.79 222.272 257.79C221.872 257.79 221.505 257.883 221.172 258.07C220.845 258.25 220.578 258.523 220.372 258.89C220.172 259.25 220.072 259.703 220.072 260.25L219.062 259.74C219.048 258.98 219.208 258.313 219.542 257.74C219.882 257.167 220.342 256.723 220.922 256.41C221.502 256.09 222.152 255.93 222.872 255.93C224.038 255.93 224.942 256.28 225.582 256.98C226.222 257.68 226.542 258.61 226.542 259.77L226.532 267H224.442ZM211.492 267V256.2H213.352V259.32H213.592V267H211.492ZM217.972 267L217.982 260.31C217.982 259.523 217.782 258.907 217.382 258.46C216.988 258.013 216.458 257.79 215.792 257.79C215.132 257.79 214.598 258.017 214.192 258.47C213.792 258.923 213.592 259.517 213.592 260.25L212.592 259.61C212.592 258.903 212.762 258.273 213.102 257.72C213.442 257.167 213.902 256.73 214.482 256.41C215.062 256.09 215.718 255.93 216.452 255.93C217.218 255.93 217.872 256.093 218.412 256.42C218.952 256.74 219.362 257.19 219.642 257.77C219.928 258.35 220.072 259.023 220.072 259.79L220.062 267H217.972ZM232.188 267.3C231.388 267.3 230.718 267.153 230.178 266.86C229.638 266.56 229.228 266.167 228.948 265.68C228.675 265.187 228.538 264.647 228.538 264.06C228.538 263.513 228.635 263.033 228.828 262.62C229.022 262.207 229.308 261.857 229.688 261.57C230.068 261.277 230.535 261.04 231.088 260.86C231.568 260.72 232.112 260.597 232.718 260.49C233.325 260.383 233.962 260.283 234.628 260.19C235.302 260.097 235.968 260.003 236.628 259.91L235.868 260.33C235.882 259.483 235.702 258.857 235.328 258.45C234.962 258.037 234.328 257.83 233.428 257.83C232.862 257.83 232.342 257.963 231.868 258.23C231.395 258.49 231.065 258.923 230.878 259.53L228.928 258.93C229.195 258.003 229.702 257.267 230.448 256.72C231.202 256.173 232.202 255.9 233.448 255.9C234.415 255.9 235.255 256.067 235.968 256.4C236.688 256.727 237.215 257.247 237.548 257.96C237.722 258.313 237.828 258.687 237.868 259.08C237.908 259.473 237.928 259.897 237.928 260.35V267H236.078V264.53L236.438 264.85C235.992 265.677 235.422 266.293 234.728 266.7C234.042 267.1 233.195 267.3 232.188 267.3ZM232.558 265.59C233.152 265.59 233.662 265.487 234.088 265.28C234.515 265.067 234.858 264.797 235.118 264.47C235.378 264.143 235.548 263.803 235.628 263.45C235.742 263.13 235.805 262.77 235.818 262.37C235.838 261.97 235.848 261.65 235.848 261.41L236.528 261.66C235.868 261.76 235.268 261.85 234.728 261.93C234.188 262.01 233.698 262.09 233.258 262.17C232.825 262.243 232.438 262.333 232.098 262.44C231.812 262.54 231.555 262.66 231.328 262.8C231.108 262.94 230.932 263.11 230.798 263.31C230.672 263.51 230.608 263.753 230.608 264.04C230.608 264.32 230.678 264.58 230.818 264.82C230.958 265.053 231.172 265.24 231.458 265.38C231.745 265.52 232.112 265.59 232.558 265.59ZM244.975 272.1C244.395 272.1 243.832 272.01 243.285 271.83C242.745 271.65 242.252 271.383 241.805 271.03C241.358 270.683 240.988 270.253 240.695 269.74L242.625 268.76C242.858 269.22 243.192 269.557 243.625 269.77C244.058 269.983 244.515 270.09 244.995 270.09C245.588 270.09 246.095 269.983 246.515 269.77C246.935 269.563 247.252 269.25 247.465 268.83C247.685 268.41 247.792 267.89 247.785 267.27V264.25H248.035V256.2H249.885V267.29C249.885 267.577 249.875 267.85 249.855 268.11C249.835 268.37 249.798 268.63 249.745 268.89C249.592 269.617 249.298 270.217 248.865 270.69C248.438 271.163 247.892 271.517 247.225 271.75C246.565 271.983 245.815 272.1 244.975 272.1ZM244.815 267.3C243.808 267.3 242.938 267.05 242.205 266.55C241.478 266.05 240.915 265.37 240.515 264.51C240.122 263.643 239.925 262.67 239.925 261.59C239.925 260.503 240.125 259.533 240.525 258.68C240.925 257.82 241.492 257.143 242.225 256.65C242.965 256.15 243.842 255.9 244.855 255.9C245.875 255.9 246.732 256.15 247.425 256.65C248.125 257.143 248.652 257.82 249.005 258.68C249.365 259.54 249.545 260.51 249.545 261.59C249.545 262.67 249.365 263.64 249.005 264.5C248.645 265.36 248.115 266.043 247.415 266.55C246.715 267.05 245.848 267.3 244.815 267.3ZM245.105 265.41C245.792 265.41 246.352 265.247 246.785 264.92C247.218 264.593 247.535 264.143 247.735 263.57C247.935 262.997 248.035 262.337 248.035 261.59C248.035 260.843 247.932 260.183 247.725 259.61C247.525 259.037 247.212 258.59 246.785 258.27C246.365 257.95 245.828 257.79 245.175 257.79C244.482 257.79 243.912 257.96 243.465 258.3C243.018 258.64 242.685 259.097 242.465 259.67C242.252 260.243 242.145 260.883 242.145 261.59C242.145 262.303 242.252 262.95 242.465 263.53C242.685 264.103 243.012 264.56 243.445 264.9C243.885 265.24 244.438 265.41 245.105 265.41ZM257.483 267.3C256.41 267.3 255.466 267.067 254.653 266.6C253.846 266.127 253.216 265.47 252.763 264.63C252.316 263.783 252.093 262.803 252.093 261.69C252.093 260.51 252.313 259.487 252.753 258.62C253.2 257.753 253.82 257.083 254.613 256.61C255.406 256.137 256.33 255.9 257.383 255.9C258.483 255.9 259.42 256.157 260.193 256.67C260.966 257.177 261.543 257.9 261.923 258.84C262.31 259.78 262.463 260.897 262.383 262.19H260.293V261.43C260.28 260.177 260.04 259.25 259.573 258.65C259.113 258.05 258.41 257.75 257.463 257.75C256.416 257.75 255.63 258.08 255.103 258.74C254.576 259.4 254.313 260.353 254.313 261.6C254.313 262.787 254.576 263.707 255.103 264.36C255.63 265.007 256.39 265.33 257.383 265.33C258.036 265.33 258.6 265.183 259.073 264.89C259.553 264.59 259.926 264.163 260.193 263.61L262.243 264.26C261.823 265.227 261.186 265.977 260.333 266.51C259.48 267.037 258.53 267.3 257.483 267.3ZM253.633 262.19V260.56H261.343V262.19H253.633ZM267.63 267L272.31 252.6H275.32L280 267H277.83L273.52 253.86H274.06L269.8 267H267.63ZM270.06 263.75V261.79H277.58V263.75H270.06ZM283.914 267L279.994 256.2H282.104L284.974 264.38L287.844 256.2H289.954L286.034 267H283.914ZM294.2 267.3C293.4 267.3 292.73 267.153 292.19 266.86C291.65 266.56 291.24 266.167 290.96 265.68C290.687 265.187 290.55 264.647 290.55 264.06C290.55 263.513 290.647 263.033 290.84 262.62C291.033 262.207 291.32 261.857 291.7 261.57C292.08 261.277 292.547 261.04 293.1 260.86C293.58 260.72 294.123 260.597 294.73 260.49C295.337 260.383 295.973 260.283 296.64 260.19C297.313 260.097 297.98 260.003 298.64 259.91L297.88 260.33C297.893 259.483 297.713 258.857 297.34 258.45C296.973 258.037 296.34 257.83 295.44 257.83C294.873 257.83 294.353 257.963 293.88 258.23C293.407 258.49 293.077 258.923 292.89 259.53L290.94 258.93C291.207 258.003 291.713 257.267 292.46 256.72C293.213 256.173 294.213 255.9 295.46 255.9C296.427 255.9 297.267 256.067 297.98 256.4C298.7 256.727 299.227 257.247 299.56 257.96C299.733 258.313 299.84 258.687 299.88 259.08C299.92 259.473 299.94 259.897 299.94 260.35V267H298.09V264.53L298.45 264.85C298.003 265.677 297.433 266.293 296.74 266.7C296.053 267.1 295.207 267.3 294.2 267.3ZM294.57 265.59C295.163 265.59 295.673 265.487 296.1 265.28C296.527 265.067 296.87 264.797 297.13 264.47C297.39 264.143 297.56 263.803 297.64 263.45C297.753 263.13 297.817 262.77 297.83 262.37C297.85 261.97 297.86 261.65 297.86 261.41L298.54 261.66C297.88 261.76 297.28 261.85 296.74 261.93C296.2 262.01 295.71 262.09 295.27 262.17C294.837 262.243 294.45 262.333 294.11 262.44C293.823 262.54 293.567 262.66 293.34 262.8C293.12 262.94 292.943 263.11 292.81 263.31C292.683 263.51 292.62 263.753 292.62 264.04C292.62 264.32 292.69 264.58 292.83 264.82C292.97 265.053 293.183 265.24 293.47 265.38C293.757 265.52 294.123 265.59 294.57 265.59ZM302.737 254.43V252.4H304.827V254.43H302.737ZM302.737 267V256.2H304.827V267H302.737ZM308.03 267V252.3H310.12V267H308.03ZM316.173 267.3C315.373 267.3 314.703 267.153 314.163 266.86C313.623 266.56 313.213 266.167 312.933 265.68C312.659 265.187 312.523 264.647 312.523 264.06C312.523 263.513 312.619 263.033 312.813 262.62C313.006 262.207 313.293 261.857 313.673 261.57C314.053 261.277 314.519 261.04 315.073 260.86C315.553 260.72 316.096 260.597 316.703 260.49C317.309 260.383 317.946 260.283 318.613 260.19C319.286 260.097 319.953 260.003 320.613 259.91L319.853 260.33C319.866 259.483 319.686 258.857 319.313 258.45C318.946 258.037 318.313 257.83 317.413 257.83C316.846 257.83 316.326 257.963 315.853 258.23C315.379 258.49 315.049 258.923 314.863 259.53L312.913 258.93C313.179 258.003 313.686 257.267 314.433 256.72C315.186 256.173 316.186 255.9 317.433 255.9C318.399 255.9 319.239 256.067 319.953 256.4C320.673 256.727 321.199 257.247 321.533 257.96C321.706 258.313 321.813 258.687 321.853 259.08C321.893 259.473 321.913 259.897 321.913 260.35V267H320.063V264.53L320.423 264.85C319.976 265.677 319.406 266.293 318.713 266.7C318.026 267.1 317.179 267.3 316.173 267.3ZM316.543 265.59C317.136 265.59 317.646 265.487 318.073 265.28C318.499 265.067 318.843 264.797 319.103 264.47C319.363 264.143 319.533 263.803 319.613 263.45C319.726 263.13 319.789 262.77 319.803 262.37C319.823 261.97 319.833 261.65 319.833 261.41L320.513 261.66C319.853 261.76 319.253 261.85 318.713 261.93C318.173 262.01 317.683 262.09 317.243 262.17C316.809 262.243 316.423 262.333 316.083 262.44C315.796 262.54 315.539 262.66 315.313 262.8C315.093 262.94 314.916 263.11 314.783 263.31C314.656 263.51 314.593 263.753 314.593 264.04C314.593 264.32 314.663 264.58 314.803 264.82C314.943 265.053 315.156 265.24 315.443 265.38C315.729 265.52 316.096 265.59 316.543 265.59ZM329.579 267.3C328.546 267.3 327.679 267.05 326.979 266.55C326.279 266.043 325.749 265.36 325.389 264.5C325.029 263.64 324.849 262.67 324.849 261.59C324.849 260.51 325.026 259.54 325.379 258.68C325.739 257.82 326.266 257.143 326.959 256.65C327.659 256.15 328.519 255.9 329.539 255.9C330.553 255.9 331.426 256.15 332.159 256.65C332.899 257.143 333.469 257.82 333.869 258.68C334.269 259.533 334.469 260.503 334.469 261.59C334.469 262.67 334.269 263.643 333.869 264.51C333.476 265.37 332.913 266.05 332.179 266.55C331.453 267.05 330.586 267.3 329.579 267.3ZM324.499 267V252.6H326.599V259.23H326.359V267H324.499ZM329.289 265.41C329.956 265.41 330.506 265.24 330.939 264.9C331.379 264.56 331.706 264.103 331.919 263.53C332.139 262.95 332.249 262.303 332.249 261.59C332.249 260.883 332.139 260.243 331.919 259.67C331.706 259.097 331.376 258.64 330.929 258.3C330.483 257.96 329.913 257.79 329.219 257.79C328.566 257.79 328.026 257.95 327.599 258.27C327.179 258.59 326.866 259.037 326.659 259.61C326.459 260.183 326.359 260.843 326.359 261.59C326.359 262.337 326.459 262.997 326.659 263.57C326.859 264.143 327.176 264.593 327.609 264.92C328.043 265.247 328.603 265.41 329.289 265.41ZM336.877 267V252.3H338.967V267H336.877ZM346.76 267.3C345.687 267.3 344.744 267.067 343.93 266.6C343.124 266.127 342.494 265.47 342.04 264.63C341.594 263.783 341.37 262.803 341.37 261.69C341.37 260.51 341.59 259.487 342.03 258.62C342.477 257.753 343.097 257.083 343.89 256.61C344.684 256.137 345.607 255.9 346.66 255.9C347.76 255.9 348.697 256.157 349.47 256.67C350.244 257.177 350.82 257.9 351.2 258.84C351.587 259.78 351.74 260.897 351.66 262.19H349.57V261.43C349.557 260.177 349.317 259.25 348.85 258.65C348.39 258.05 347.687 257.75 346.74 257.75C345.694 257.75 344.907 258.08 344.38 258.74C343.854 259.4 343.59 260.353 343.59 261.6C343.59 262.787 343.854 263.707 344.38 264.36C344.907 265.007 345.667 265.33 346.66 265.33C347.314 265.33 347.877 265.183 348.35 264.89C348.83 264.59 349.204 264.163 349.47 263.61L351.52 264.26C351.1 265.227 350.464 265.977 349.61 266.51C348.757 267.037 347.807 267.3 346.76 267.3ZM342.91 262.19V260.56H350.62V262.19H342.91Z" fill="black"/>
<defs>
<clipPath id="clip0_2303_503">
<rect width="180" height="176" fill="white" transform="translate(174 41)"/>
</clipPath>
</defs>
</svg>
