<svg width="48" height="62" viewBox="0 0 48 62" fill="none" xmlns="http://www.w3.org/2000/svg">
<g clip-path="url(#clip0_928_1587)">
<path d="M0 30.9004C0 23.0506 0 15.2008 0 7.35103C0 2.9266 2.39016 0.5003 6.80492 0.5003C14.116 0.5003 21.4271 0.471756 28.7381 0.528845C29.4411 0.528845 30.3128 0.899926 30.7909 1.38519C36.2742 6.86577 41.7012 12.3749 47.1002 17.9411C47.5782 18.4549 47.9438 19.3113 47.9438 20.0249C48 31.5855 48 43.1461 47.9719 54.7067C47.9719 58.9884 45.5817 61.4718 41.3638 61.4718C29.7786 61.4718 18.1933 61.4718 6.60808 61.4718C2.41828 61.4718 0 59.0169 0 54.7352C0 46.7998 0 38.8644 0 30.9004ZM27.1353 7.26539C27.1353 12.0324 27.1353 16.9135 27.1353 21.7946C32.0281 21.7946 36.8084 21.7946 41.4482 21.7946C36.696 16.942 31.8875 12.0894 27.1353 7.26539ZM19.3743 49.2261C21.8489 49.5972 24.2109 49.6543 26.4886 48.7123C28.8787 47.7418 30.116 45.2869 29.8629 42.2897C29.638 39.7207 28.0914 37.7226 25.5606 37.38C23.5641 37.0946 21.5114 37.3229 19.3743 37.3229C19.3743 41.3192 19.3743 45.1727 19.3743 49.2261ZM11.6977 45.2298C12.9912 44.9729 14.2285 44.8587 15.3251 44.4591C16.8998 43.8882 17.6028 42.5181 17.5466 40.7198C17.4903 39.1213 16.6467 37.9224 15.1283 37.4371C13.1318 36.8091 11.1072 37.0375 9.13884 37.3515C9.13884 41.4048 9.13884 45.3155 9.13884 49.1404C10.0387 49.1404 10.7979 49.1404 11.6696 49.1404C11.6977 47.7703 11.6977 46.4572 11.6977 45.2298ZM34.4183 44.3449C35.9649 44.3449 37.2865 44.3449 38.5518 44.3449C38.5518 43.5742 38.5518 42.9177 38.5518 42.1185C37.1178 42.1185 35.7961 42.1185 34.4745 42.1185C34.4745 41.1479 34.4745 40.3772 34.4745 39.4353C35.9649 39.4353 37.3989 39.4353 38.8893 39.4353C38.8893 38.636 38.8893 38.008 38.8893 37.3229C36.471 37.3229 34.109 37.3229 31.775 37.3229C31.775 41.3477 31.775 45.2584 31.775 49.1975C32.703 49.1975 33.5185 49.1975 34.4183 49.1975C34.4183 47.599 34.4183 46.0862 34.4183 44.3449Z" fill="#DCDCDC"/>
<path d="M22.0742 47.1998C22.0742 44.5451 22.0742 42.0046 22.0742 39.4641C23.8739 38.9218 25.4204 39.2643 26.264 40.4918C27.3326 42.0332 27.2482 43.7173 26.5171 45.3444C25.8704 46.8858 24.5206 47.3996 22.0742 47.1998Z" fill="#DCDCDC"/>
<path d="M11.6412 39.2071C12.2598 39.2071 12.7379 39.0644 13.0753 39.2357C13.6939 39.5211 14.4813 39.8922 14.7344 40.4345C14.9312 40.9198 14.6781 41.9474 14.2845 42.2899C13.7221 42.7181 12.8504 42.7467 12.0911 42.8608C11.9787 42.8894 11.6975 42.3756 11.6975 42.1187C11.6131 41.2338 11.6412 40.3204 11.6412 39.2071Z" fill="#DCDCDC"/>
</g>
<defs>
<clipPath id="clip0_928_1587">
<rect width="48" height="61" fill="white" transform="translate(0 0.5)"/>
</clipPath>
</defs>
</svg>
