<svg width="48" height="49" viewBox="0 0 48 49" fill="none" xmlns="http://www.w3.org/2000/svg">
<path d="M24 15.6942C31.5075 15.6942 39.0149 15.7184 46.5223 15.6699C47.6187 15.6699 48.0238 15.8882 48 17.1011C47.9285 23.117 48 29.1328 47.9762 35.1729C47.9523 43.2506 42.3277 48.9511 34.3436 48.9754C27.3605 48.9996 20.3774 48.9996 13.3704 48.9754C6.79245 48.9511 1.62066 44.7061 0.285998 38.3021C0.0953327 37.3318 0.0238332 36.2887 0 35.2942C0 29.1813 0.0476663 23.0927 0 16.9798C0 15.9853 0.262165 15.6699 1.26316 15.6942C8.84211 15.7184 16.4211 15.6942 24 15.6942ZM17.4697 28.9872C17.4697 30.8793 17.4459 32.7957 17.4697 34.6877C17.4935 36.9922 19.0665 37.9382 21.0685 36.8224C24.4528 34.9546 27.8133 33.0382 31.1976 31.1704C32.0556 30.6853 32.6753 30.0546 32.6991 29.0115C32.6991 27.9684 32.1033 27.3135 31.2453 26.8526C27.8133 24.9848 24.429 23.0442 20.997 21.1521C19.0665 20.0848 17.5174 21.0308 17.4697 23.2868C17.4459 25.2031 17.4697 27.0952 17.4697 28.9872Z" fill="#DCDCDC"/>
<path d="M26.4301 0C30.2911 0.194059 34.2236 0.0242575 38.013 0.65495C43.018 1.50396 47.1888 6.35545 47.6655 11.2554C46.879 11.2554 46.1163 11.2554 45.3298 11.2554C42.8988 11.2554 40.4917 11.2312 38.0607 11.2797C37.2504 11.304 36.6545 11.0856 36.0825 10.4792C33.0796 7.35 30.0289 4.29356 27.0021 1.21287C26.7638 0.970297 26.5254 0.679208 26.2871 0.436634C26.3348 0.266832 26.3824 0.145545 26.4301 0Z" fill="#DCDCDC"/>
<path d="M12.2262 0.194541C14.6333 0.194541 17.0405 0.170283 19.4476 0.218798C19.7098 0.218798 20.0435 0.437115 20.258 0.655432C23.6661 4.09999 27.0504 7.5688 30.6969 11.2559C29.0762 11.2559 27.6939 11.1104 26.3593 11.2802C23.7138 11.644 21.831 10.698 20.0911 8.66038C17.5887 5.79801 14.7763 3.22672 12.1309 0.509887C12.1547 0.412858 12.1785 0.291571 12.2262 0.194541Z" fill="#DCDCDC"/>
<path d="M0.261719 11.1823C1.04821 7.05858 3.16937 4.00215 6.69667 1.96452C6.88734 1.84324 7.34017 1.91601 7.507 2.08581C10.4385 5.04522 13.37 8.02888 16.4444 11.1823C10.9628 11.1823 5.71951 11.1823 0.261719 11.1823Z" fill="#DCDCDC"/>
</svg>
