<svg width="30" height="30" viewBox="0 0 30 30" fill="none" xmlns="http://www.w3.org/2000/svg">
<path d="M14.9897 23.3287C15.2607 23.3287 15.49 22.7241 15.6568 22.0778C16.3239 22.3489 17.7416 23.1411 18.096 23.3496C18.096 23.1411 18.096 22.5782 18.096 22.328C18.0334 22.2655 16.5116 21.1188 15.907 20.6602V20.6393V15.4899C16.2614 15.4899 16.7409 15.4899 16.9494 15.4899C17.1995 15.5942 21.6401 17.4288 22.1613 17.6164C22.1613 17.4705 22.1613 17.1578 22.1613 16.845C22.1196 16.7825 21.3274 16.1571 20.4518 15.4691C20.4726 15.3231 20.4935 15.1564 20.4935 14.9687C20.4935 14.2808 20.3059 13.697 20.0974 13.697C19.8889 13.697 19.7221 14.1974 19.7013 14.8645C19.1175 14.4058 18.5755 13.9889 18.3045 13.7804C18.3253 13.6553 18.3253 13.5094 18.3253 13.3634C18.3253 12.6755 18.1377 12.0917 17.9292 12.0917C17.7207 12.0917 17.5539 12.5921 17.5331 13.2175C17.0119 12.8839 16.3239 12.4461 15.9278 12.1751V8.71439C15.9278 8.67269 15.9278 8.65184 15.907 8.61015C15.8236 7.50521 15.4483 6.65045 15.0105 6.65045C14.5519 6.65045 14.1766 7.50521 14.1141 8.61015C14.1141 8.65184 14.0932 8.67269 14.0932 8.71439V12.196C13.6763 12.4461 12.9883 12.8839 12.4671 13.2384C12.4462 12.6129 12.2795 12.1126 12.071 12.1126C11.8416 12.1126 11.6749 12.6755 11.6749 13.3843C11.6749 13.5302 11.6749 13.6762 11.6957 13.8013C11.4247 14.0306 10.8826 14.4475 10.2989 14.8853C10.2781 14.2391 10.1113 13.7179 9.9028 13.7179C9.67348 13.7179 9.50669 14.2808 9.50669 14.9896C9.50669 15.1564 9.52754 15.3231 9.54839 15.4899C8.67278 16.1779 7.88056 16.8033 7.83887 16.8659C7.83887 17.1786 7.83887 17.4913 7.83887 17.6373C8.36006 17.4705 12.8006 15.615 13.0508 15.5108C13.2593 15.5108 13.7388 15.5108 14.0932 15.5108V20.6185V20.6393C13.4886 21.098 11.9876 22.2446 11.9042 22.3072C11.9042 22.5573 11.9042 23.1202 11.9042 23.3287C12.2586 23.1202 13.6554 22.328 14.3434 22.057C14.4893 22.7033 14.7395 23.3287 14.9897 23.3287Z" fill="#67D4FF"/>
</svg>
