<svg width="16" height="16" viewBox="0 0 16 16" fill="none" xmlns="http://www.w3.org/2000/svg">
<g clip-path="url(#clip0_252_1674)">
<path d="M15.4889 7.99444C15.4889 12.1335 12.1335 15.4889 7.99444 15.4889C3.85538 15.4889 0.5 12.1335 0.5 7.99444C0.5 3.85538 3.85538 0.5 7.99444 0.5C12.1335 0.5 15.4889 3.85538 15.4889 7.99444Z" fill="#0C9AC9" fill-opacity="0.2" stroke="#32C5FF"/>
<path d="M7.99442 12.442C8.13897 12.442 8.26128 12.1195 8.35023 11.7748C8.70603 11.9194 9.46211 12.3419 9.65113 12.4531C9.65113 12.3419 9.65113 12.0417 9.65113 11.9083C9.61777 11.8749 8.8061 11.2634 8.48365 11.0188V11.0076V8.26129C8.67267 8.26129 8.92841 8.26129 9.03959 8.26129C9.17302 8.31689 11.5413 9.29534 11.8193 9.39541C11.8193 9.31758 11.8193 9.1508 11.8193 8.98402C11.7971 8.95066 11.3745 8.61709 10.9076 8.25017C10.9187 8.17234 10.9298 8.08339 10.9298 7.98332C10.9298 7.6164 10.8297 7.30507 10.7185 7.30507C10.6073 7.30507 10.5184 7.57192 10.5073 7.92773C10.196 7.68311 9.90686 7.46073 9.76232 7.34955C9.77344 7.28283 9.77344 7.205 9.77344 7.12717C9.77344 6.76025 9.67337 6.44892 9.56218 6.44892C9.45099 6.44892 9.36204 6.71577 9.35092 7.04934C9.07295 6.87144 8.70603 6.63794 8.49477 6.4934V4.64767C8.49477 4.62543 8.49477 4.61431 8.48365 4.59208C8.43918 4.00278 8.23904 3.54691 8.00554 3.54691C7.76093 3.54691 7.56079 4.00278 7.52743 4.59208C7.52743 4.61431 7.51631 4.62543 7.51631 4.64767V6.50452C7.29394 6.63794 6.92702 6.87144 6.64905 7.06046C6.63793 6.72689 6.54898 6.46004 6.43779 6.46004C6.31548 6.46004 6.22653 6.76025 6.22653 7.13829C6.22653 7.21612 6.22653 7.29395 6.23765 7.36066C6.0931 7.48297 5.80401 7.70535 5.49269 7.93884C5.48157 7.59416 5.39262 7.31619 5.28143 7.31619C5.15912 7.31619 5.07017 7.6164 5.07017 7.99444C5.07017 8.08339 5.08129 8.17234 5.09241 8.26129C4.62542 8.62821 4.2029 8.96178 4.18066 8.99513C4.18066 9.16192 4.18066 9.3287 4.18066 9.40653C4.45863 9.31758 6.82695 8.328 6.96037 8.27241C7.07156 8.27241 7.32729 8.27241 7.51631 8.27241V10.9965V11.0076C7.19387 11.2523 6.39331 11.8638 6.34884 11.8971C6.34884 12.0306 6.34884 12.3308 6.34884 12.442C6.53786 12.3308 7.28282 11.9083 7.64974 11.7637C7.72757 12.1084 7.861 12.442 7.99442 12.442Z" fill="#67D4FF"/>
</g>
<defs>
<clipPath id="clip0_252_1674">
<rect width="16" height="16" fill="white"/>
</clipPath>
</defs>
</svg>
