<svg width="16" height="16" viewBox="0 0 16 16" fill="none" xmlns="http://www.w3.org/2000/svg">
<g clip-path="url(#clip0_375_495)">
<path opacity="0.2" d="M7.99444 15.9889C12.4096 15.9889 15.9889 12.4096 15.9889 7.99444C15.9889 3.57923 12.4096 0 7.99444 0C3.57923 0 0 3.57923 0 7.99444C0 12.4096 3.57923 15.9889 7.99444 15.9889Z" fill="#7E84FA"/>
<path d="M12.3752 10.0848V9.03961V7.69423C12.3752 7.48297 12.1973 7.30507 11.986 7.30507H11.5857L11.4968 6.58235H12.0527C12.1306 6.58235 12.1973 6.51563 12.1973 6.4378V5.4927C12.1973 5.41487 12.1306 5.34816 12.0527 5.34816C11.9749 5.34816 11.9082 5.41487 11.9082 5.4927V6.29326H11.4634L11.2299 4.3697C11.2077 4.21404 11.0631 4.08061 10.9075 4.08061H10.4738V3.69145C10.4738 3.61362 10.4071 3.54691 10.3293 3.54691C10.2515 3.54691 10.1848 3.61362 10.1848 3.69145V4.08061H5.81505V3.69145C5.81505 3.61362 5.74834 3.54691 5.67051 3.54691C5.59268 3.54691 5.52596 3.61362 5.52596 3.69145V4.08061H5.09233C4.93667 4.08061 4.79212 4.21404 4.76988 4.3697L4.53639 6.29326H4.09164V5.4927C4.09164 5.41487 4.02492 5.34816 3.94709 5.34816C3.86926 5.34816 3.80255 5.41487 3.80255 5.4927V6.4378C3.80255 6.51563 3.86926 6.58235 3.94709 6.58235H4.50303L4.41408 7.30507H4.00268C3.79143 7.30507 3.61353 7.48297 3.61353 7.69423V9.03961V10.0848H3.81366V12.164C3.81366 12.3197 3.94709 12.4531 4.10275 12.4531H5.24799C5.40366 12.4531 5.53708 12.3197 5.53708 12.164V10.852H10.4516V12.1529C10.4516 12.3085 10.585 12.442 10.7407 12.442H11.8859C12.0416 12.442 12.175 12.3085 12.175 12.1529V10.0848H12.3752ZM5.73722 7.73871C5.73722 7.47185 5.9596 7.24948 6.22645 7.24948C6.4933 7.24948 6.71568 7.47185 6.71568 7.73871C6.71568 8.00556 6.50442 8.22793 6.22645 8.22793C5.94848 8.22793 5.73722 8.00556 5.73722 7.73871ZM7.2605 8.22793V7.24948C7.2605 7.17164 7.32722 7.10493 7.40505 7.10493C7.48288 7.10493 7.54959 7.17164 7.54959 7.24948V8.22793C7.54959 8.30577 7.48288 8.37248 7.40505 8.37248C7.32722 8.37248 7.2605 8.30577 7.2605 8.22793ZM7.8498 8.22793V7.24948C7.8498 7.17164 7.91651 7.10493 7.99435 7.10493C8.07218 7.10493 8.13889 7.17164 8.13889 7.24948V8.22793C8.13889 8.30577 8.07218 8.37248 7.99435 8.37248C7.91651 8.37248 7.8498 8.30577 7.8498 8.22793ZM8.4391 8.22793V7.24948C8.4391 7.17164 8.50581 7.10493 8.58364 7.10493C8.66148 7.10493 8.72819 7.17164 8.72819 7.24948V8.22793C8.72819 8.30577 8.66148 8.37248 8.58364 8.37248C8.50581 8.37248 8.4391 8.30577 8.4391 8.22793ZM9.27301 7.73871C9.27301 7.47185 9.49539 7.24948 9.76224 7.24948C10.0291 7.24948 10.2515 7.47185 10.2515 7.73871C10.2515 8.00556 10.0291 8.22793 9.76224 8.22793C9.49539 8.22793 9.27301 8.00556 9.27301 7.73871ZM5.04786 4.40306C5.04786 4.39194 5.07009 4.3697 5.08121 4.3697H10.8964C10.9075 4.3697 10.9297 4.39194 10.9297 4.40306L11.1743 6.4378H4.80324L5.04786 4.40306Z" fill="#7E84FA"/>
</g>
<defs>
<clipPath id="clip0_375_495">
<rect width="16" height="16" fill="white"/>
</clipPath>
</defs>
</svg>
