<svg width="16" height="16" viewBox="0 0 16 16" fill="none" xmlns="http://www.w3.org/2000/svg">
<g clip-path="url(#clip0_464_580)">
<path d="M15.4889 7.99444C15.4889 12.1335 12.1335 15.4889 7.99444 15.4889C3.85538 15.4889 0.5 12.1335 0.5 7.99444C0.5 3.85538 3.85538 0.5 7.99444 0.5C12.1335 0.5 15.4889 3.85538 15.4889 7.99444Z" fill="#7E84FA" fill-opacity="0.2" stroke="#7E84FA"/>
<path d="M11.8702 9.87266V8.93383V7.72534C11.8702 7.53558 11.7104 7.37578 11.5206 7.37578H11.161L11.0811 6.72659H11.5805C11.6504 6.72659 11.7104 6.66667 11.7104 6.59675V5.74782C11.7104 5.6779 11.6504 5.61798 11.5805 5.61798C11.5106 5.61798 11.4507 5.6779 11.4507 5.74782V6.46692H11.0512L10.8414 4.73908C10.8215 4.59925 10.6916 4.4794 10.5518 4.4794H10.1623V4.12984C10.1623 4.05993 10.1024 4 10.0325 4C9.96255 4 9.90262 4.05993 9.90262 4.12984V4.4794H5.97753V4.12984C5.97753 4.05993 5.9176 4 5.84769 4C5.77778 4 5.71785 4.05993 5.71785 4.12984V4.4794H5.32834C5.18851 4.4794 5.05868 4.59925 5.0387 4.73908L4.82896 6.46692H4.42946V5.74782C4.42946 5.6779 4.36954 5.61798 4.29963 5.61798C4.22971 5.61798 4.16979 5.6779 4.16979 5.74782V6.59675C4.16979 6.66667 4.22971 6.72659 4.29963 6.72659H4.799L4.7191 7.37578H4.34956C4.1598 7.37578 4 7.53558 4 7.72534V8.93383V9.87266H4.17978V11.7403C4.17978 11.8802 4.29963 12 4.43945 12H5.46816C5.60799 12 5.72784 11.8802 5.72784 11.7403V10.5618H10.1423V11.7303C10.1423 11.8702 10.2622 11.99 10.402 11.99H11.4307C11.5705 11.99 11.6904 11.8702 11.6904 11.7303V9.87266H11.8702ZM5.90762 7.76529C5.90762 7.52559 6.10737 7.32584 6.34707 7.32584C6.58677 7.32584 6.78652 7.52559 6.78652 7.76529C6.78652 8.00499 6.59675 8.20474 6.34707 8.20474C6.09738 8.20474 5.90762 8.00499 5.90762 7.76529ZM7.27591 8.20474V7.32584C7.27591 7.25593 7.33583 7.19601 7.40574 7.19601C7.47566 7.19601 7.53558 7.25593 7.53558 7.32584V8.20474C7.53558 8.27466 7.47566 8.33458 7.40574 8.33458C7.33583 8.33458 7.27591 8.27466 7.27591 8.20474ZM7.80524 8.20474V7.32584C7.80524 7.25593 7.86517 7.19601 7.93508 7.19601C8.00499 7.19601 8.06492 7.25593 8.06492 7.32584V8.20474C8.06492 8.27466 8.00499 8.33458 7.93508 8.33458C7.86517 8.33458 7.80524 8.27466 7.80524 8.20474ZM8.33458 8.20474V7.32584C8.33458 7.25593 8.39451 7.19601 8.46442 7.19601C8.53433 7.19601 8.59426 7.25593 8.59426 7.32584V8.20474C8.59426 8.27466 8.53433 8.33458 8.46442 8.33458C8.39451 8.33458 8.33458 8.27466 8.33458 8.20474ZM9.08365 7.76529C9.08365 7.52559 9.2834 7.32584 9.5231 7.32584C9.7628 7.32584 9.96255 7.52559 9.96255 7.76529C9.96255 8.00499 9.7628 8.20474 9.5231 8.20474C9.2834 8.20474 9.08365 8.00499 9.08365 7.76529ZM5.28839 4.76904C5.28839 4.75905 5.30836 4.73908 5.31835 4.73908H10.5418C10.5518 4.73908 10.5718 4.75905 10.5718 4.76904L10.7915 6.59675H5.06866L5.28839 4.76904Z" fill="#7E84FA"/>
</g>
<defs>
<clipPath id="clip0_464_580">
<rect width="16" height="16" fill="white"/>
</clipPath>
</defs>
</svg>
