<svg width="16" height="16" viewBox="0 0 16 16" fill="none" xmlns="http://www.w3.org/2000/svg">
<g clip-path="url(#clip0_252_1671)">
<path opacity="0.3" d="M7.99444 15.9889C12.4096 15.9889 15.9889 12.4097 15.9889 7.99446C15.9889 3.57925 12.4096 1.52588e-05 7.99444 1.52588e-05C3.57923 1.52588e-05 0 3.57925 0 7.99446C0 12.4097 3.57923 15.9889 7.99444 15.9889Z" fill="#E67E22"/>
<path d="M7.99437 12.1418C8.03885 12.1418 8.08333 12.0751 8.11668 11.975C8.22787 11.975 8.91724 12.353 9.06178 12.442C9.06178 12.3753 9.06178 12.1751 9.06178 12.0862C9.03954 12.064 8.35018 11.5414 8.23899 11.4635C8.29458 11.13 8.33906 10.7742 8.33906 10.6519V10.0514H8.42801C8.42801 10.4072 8.49472 10.6852 8.58367 10.6852C8.67262 10.6852 8.73934 10.4072 8.73934 10.0514H8.80605C8.80605 10.4072 8.87276 10.6852 8.96171 10.6852C9.05066 10.6852 9.11738 10.3961 9.11738 10.0292C9.11738 9.66228 9.05066 9.37319 8.96171 9.37319C8.87276 9.37319 8.80605 9.65117 8.80605 10.007H8.73934C8.73934 9.65117 8.67262 9.37319 8.58367 9.37319C8.49472 9.37319 8.42801 9.65117 8.42801 10.007H8.33906V8.70606C8.4836 8.70606 8.90612 8.71718 9.06178 8.71718C9.19521 8.77278 11.6191 9.78459 11.9082 9.87354C11.9082 9.78459 11.9082 9.62893 11.9082 9.45103C11.8526 9.38431 9.80674 7.79432 9.69556 7.69425C9.65108 7.73873 9.6622 7.72761 9.59549 7.80544C9.51765 7.72761 8.50584 6.92705 8.33906 6.81586V4.05839C8.33906 4.03615 8.33906 4.02504 8.33906 4.0028C8.31682 3.39126 8.17228 2.92427 8.00549 2.92427C7.83871 2.92427 7.70528 3.39126 7.67193 4.0028C7.67193 4.02504 7.67193 4.03615 7.67193 4.05839V6.79362C7.50515 6.90481 6.50445 7.70537 6.4155 7.7832C6.34879 7.71649 6.35991 7.71649 6.31543 7.67201C6.20424 7.77208 4.14726 9.36208 4.10278 9.42879C4.10278 9.60669 4.10278 9.76235 4.10278 9.8513C4.39187 9.75123 6.81578 8.75054 6.9492 8.69494C7.10487 8.69494 7.52738 8.69495 7.67193 8.68383V9.98473H7.58298C7.58298 9.62893 7.51627 9.35096 7.42731 9.35096C7.33836 9.35096 7.27165 9.62893 7.27165 9.98473H7.20494C7.20494 9.62893 7.13822 9.35096 7.04927 9.35096C6.96032 9.35096 6.89361 9.64005 6.89361 10.007C6.89361 10.3739 6.96032 10.663 7.04927 10.663C7.13822 10.663 7.20494 10.385 7.20494 10.0292H7.27165C7.27165 10.385 7.33836 10.663 7.42731 10.663C7.51627 10.663 7.58298 10.385 7.58298 10.0292H7.67193V10.6296C7.67193 10.7408 7.70529 11.0966 7.772 11.4413C7.67193 11.5302 6.98256 12.0417 6.9492 12.064C6.9492 12.1529 6.9492 12.3419 6.9492 12.4198C7.09375 12.3308 7.78312 11.9528 7.8943 11.9528C7.91654 12.0751 7.96102 12.1418 7.99437 12.1418Z" fill="#E67E22"/>
</g>
<defs>
<clipPath id="clip0_252_1671">
<rect width="16" height="16" fill="white"/>
</clipPath>
</defs>
</svg>
