<svg width="30" height="30" viewBox="0 0 30 30" fill="none" xmlns="http://www.w3.org/2000/svg">
<path d="M12.9674 22.5156C12.9674 22.7867 12.9674 23.0368 12.9674 23.3287C12.2794 22.8492 12.1126 21.9736 12.4253 20.9104C12.4879 21.0146 12.5296 21.1188 12.5921 21.2439C13.1967 21.1188 13.8013 21.0146 14.4267 20.8895C14.3225 20.2224 14.2391 19.5552 14.1557 18.909C14.0098 17.9291 13.8638 16.9284 13.7179 15.9486C13.6971 15.8443 13.6345 15.6984 13.572 15.6776C13.4886 15.6567 13.3635 15.7401 13.2801 15.8235C12.2377 16.8659 11.1953 17.8874 10.1529 18.9298C10.0904 18.9924 10.0279 19.0757 9.94446 19.1383C9.75683 19.2634 9.5692 19.2842 9.40242 19.1174C9.23563 18.9507 9.25648 18.763 9.38157 18.5754C9.44411 18.492 9.50665 18.4295 9.59005 18.3669C10.5907 17.3662 11.5914 16.3655 12.5921 15.3648C12.6755 15.2814 12.8006 15.2397 12.9048 15.1772C12.884 15.1355 12.8632 15.073 12.8423 15.0313C12.2169 14.8645 11.5914 14.6977 10.966 14.5518C10.5282 14.4475 10.4657 14.385 10.4448 13.9263C10.424 13.2801 10.5282 13.1341 11.1119 12.9465C11.5289 12.8214 11.9458 12.738 12.3628 12.5921C12.613 12.5087 12.8423 12.3419 13.1133 12.196C12.9674 12.05 12.9048 11.9666 12.8215 11.8832C11.7374 10.7992 10.6741 9.73592 9.59005 8.65184C9.5275 8.58929 9.44411 8.52675 9.38157 8.44336C9.25648 8.27658 9.23563 8.0681 9.38157 7.90132C9.54835 7.73453 9.75683 7.75538 9.94446 7.88047C10.0279 7.94301 10.0904 8.00555 10.1529 8.08895C11.1119 9.04795 12.0709 9.9861 13.0091 10.9451C13.0925 11.0285 13.1342 11.1536 13.2176 11.237C13.2593 11.2161 13.301 11.1953 13.3427 11.1744C13.4052 10.7575 13.426 10.3405 13.5094 9.92355C13.6554 9.21473 13.7805 8.5059 13.9681 7.79708C14.0515 7.50521 14.2183 7.21334 14.4059 6.96316C14.7186 6.52536 15.0105 6.52536 15.344 6.96316C15.5317 7.21334 15.7193 7.48436 15.8027 7.77623C16.0112 8.56845 16.1571 9.38151 16.3239 10.1946C16.4073 10.5698 16.449 10.9659 16.4907 11.3412C16.5324 11.3621 16.5741 11.4037 16.6158 11.4246C16.6783 11.3204 16.72 11.1953 16.8034 11.1119C17.8249 10.0695 18.8673 9.04795 19.8889 8.0264C19.9723 7.94301 20.0556 7.81793 20.1599 7.79708C20.3058 7.77623 20.5143 7.77623 20.5977 7.85962C20.6811 7.96386 20.7019 8.17234 20.6602 8.31827C20.6394 8.42251 20.5143 8.5059 20.4309 8.58929C19.326 9.71508 18.2002 10.82 17.0744 11.9249C16.991 12.0083 16.8868 12.05 16.7825 12.1334C16.8034 12.1751 16.8034 12.2168 16.8242 12.2585C17.0327 12.3627 17.2412 12.467 17.4705 12.5504C17.9709 12.7172 18.4712 12.8422 18.9716 12.9882C19.18 13.0507 19.326 13.155 19.326 13.3843C19.326 13.5302 19.3677 13.6553 19.3677 13.8012C19.3885 14.3224 19.3051 14.4058 18.8048 14.5101C18.2419 14.6352 17.6998 14.7811 17.0744 14.9479C17.1995 15.073 17.2829 15.1564 17.3454 15.2397C18.367 16.2613 19.4094 17.3037 20.4309 18.3252C20.5143 18.4086 20.6394 18.492 20.6602 18.5962C20.6811 18.7422 20.6811 18.9507 20.5977 19.0341C20.5143 19.1174 20.3058 19.1383 20.1599 19.1174C20.0556 19.0966 19.9723 18.9924 19.8889 18.909C18.8256 17.8457 17.7624 16.7825 16.6991 15.7401C16.6158 15.6567 16.4698 15.615 16.3656 15.5942C16.1571 15.5942 16.1363 15.7401 16.0946 15.9277C15.8652 17.5122 15.6359 19.0966 15.4066 20.6602C15.4066 20.7227 15.4066 20.7644 15.4066 20.8478C16.0112 20.9729 16.5949 21.0771 17.1995 21.2022C17.262 21.098 17.3246 20.9937 17.3663 20.9104C17.7207 21.7443 17.5331 22.7658 16.9493 23.2453C16.6991 23.016 16.7617 22.7658 16.9285 22.4739C16.3656 22.5782 15.8652 22.6824 15.344 22.7867C15.2606 22.8075 15.1981 22.9117 15.1356 22.9743C15.0522 23.0368 14.9688 23.1619 14.8645 23.1619C14.7812 23.1619 14.6978 23.0368 14.5935 22.9743C14.5101 22.8909 14.4267 22.7867 14.3225 22.7658C13.9055 22.6824 13.426 22.599 12.9674 22.5156Z" fill="#D161FF"/>
</svg>
