<svg width="16" height="16" viewBox="0 0 16 16" fill="none" xmlns="http://www.w3.org/2000/svg">
<g clip-path="url(#clip0_375_505)">
<path opacity="0.3" d="M7.99444 15.9889C12.4096 15.9889 15.9889 12.4096 15.9889 7.99444C15.9889 3.57923 12.4096 0 7.99444 0C3.57923 0 0 3.57923 0 7.99444C0 12.4096 3.57923 15.9889 7.99444 15.9889Z" fill="#EE404C"/>
<path d="M7.99435 11.1633C6.77128 11.1633 5.5482 11.1633 4.32513 11.1633C3.56905 11.1633 3.22437 10.574 3.60241 9.91799C4.82548 7.78317 6.05967 5.65948 7.29386 3.52466C7.64966 2.91312 8.33903 2.902 8.69483 3.52466C9.92902 5.65948 11.1632 7.79429 12.3974 9.94023C12.7532 10.5629 12.4085 11.1633 11.6969 11.1633C10.4627 11.1633 9.22854 11.1633 7.99435 11.1633ZM8.51693 6.9715C8.51693 6.63793 8.51693 6.30437 8.51693 5.98192C8.51693 5.63724 8.33903 5.45934 8.00547 5.44822C7.66078 5.44822 7.48288 5.62612 7.47176 5.98192C7.47176 6.63793 7.47176 7.29394 7.47176 7.93884C7.47176 8.2724 7.6719 8.47254 7.98323 8.48366C8.30567 8.48366 8.50581 8.28352 8.51693 7.93884C8.52805 7.61639 8.51693 7.29394 8.51693 6.9715ZM8.51693 9.64002C8.51693 9.36205 8.27232 9.11743 7.99435 9.12855C7.71638 9.12855 7.47176 9.38428 7.48288 9.66226C7.494 9.92911 7.72749 10.1626 7.99435 10.1626C8.2612 10.1626 8.51693 9.90687 8.51693 9.64002Z" fill="#EE404C"/>
</g>
<defs>
<clipPath id="clip0_375_505">
<rect width="16" height="16" fill="white"/>
</clipPath>
</defs>
</svg>
