<svg width="16" height="16" viewBox="0 0 16 16" fill="none" xmlns="http://www.w3.org/2000/svg">
<g clip-path="url(#clip0_464_550)">
<path d="M15.4889 7.99444C15.4889 12.1335 12.1335 15.4889 7.99444 15.4889C3.85538 15.4889 0.5 12.1335 0.5 7.99444C0.5 3.85538 3.85538 0.5 7.99444 0.5C12.1335 0.5 15.4889 3.85538 15.4889 7.99444Z" fill="#EE404C" fill-opacity="0.2" stroke="#EE404C"/>
<path d="M7.99435 11.1635C6.77128 11.1635 5.5482 11.1635 4.32513 11.1635C3.56905 11.1635 3.22437 10.5742 3.60241 9.91817C4.82548 7.78335 6.05967 5.65966 7.29386 3.52484C7.64966 2.91331 8.33903 2.90219 8.69483 3.52484C9.92902 5.65966 11.1632 7.79447 12.3974 9.94041C12.7532 10.5631 12.4085 11.1635 11.6969 11.1635C10.4627 11.1635 9.22854 11.1635 7.99435 11.1635ZM8.51693 6.97168C8.51693 6.63812 8.51693 6.30455 8.51693 5.9821C8.51693 5.63742 8.33903 5.45952 8.00547 5.4484C7.66078 5.4484 7.48288 5.6263 7.47176 5.9821C7.47176 6.63812 7.47176 7.29413 7.47176 7.93902C7.47176 8.27258 7.6719 8.47272 7.98323 8.48384C8.30567 8.48384 8.50581 8.2837 8.51693 7.93902C8.52805 7.61657 8.51693 7.29413 8.51693 6.97168ZM8.51693 9.6402C8.51693 9.36223 8.27232 9.11762 7.99435 9.12873C7.71638 9.12873 7.47176 9.38447 7.48288 9.66244C7.494 9.92929 7.72749 10.1628 7.99435 10.1628C8.2612 10.1628 8.51693 9.90705 8.51693 9.6402Z" fill="#EE404C"/>
</g>
<defs>
<clipPath id="clip0_464_550">
<rect width="16" height="16" fill="white"/>
</clipPath>
</defs>
</svg>
