<svg width="16" height="16" viewBox="0 0 16 16" fill="none" xmlns="http://www.w3.org/2000/svg">
<g clip-path="url(#clip0_464_558)">
<path d="M15.4889 7.99444C15.4889 12.1335 12.1335 15.4889 7.99444 15.4889C3.85538 15.4889 0.5 12.1335 0.5 7.99444C0.5 3.85538 3.85538 0.5 7.99444 0.5C12.1335 0.5 15.4889 3.85538 15.4889 7.99444Z" fill="#34D1C6" fill-opacity="0.2" stroke="#34D1C6"/>
<path d="M8.17239 11.53C8.03896 11.53 7.95001 11.53 7.8277 11.53C7.8277 10.7294 7.8277 9.94 7.8277 9.12832C7.57197 9.12832 7.33847 9.12832 7.08274 9.12832C7.08274 9.91776 7.08274 10.7072 7.08274 11.5189C6.81589 11.5189 6.58239 11.5189 6.32666 11.5189C6.32666 9.32846 6.32666 7.14917 6.32666 4.93652C7.43854 4.93652 8.56155 4.93652 9.68455 4.93652C9.68455 7.12693 9.68455 9.31734 9.68455 11.5189C9.43993 11.5189 9.19532 11.5189 8.92847 11.5189C8.92847 10.7183 8.92847 9.92888 8.92847 9.12832C8.67273 9.12832 8.43924 9.12832 8.17239 9.12832C8.17239 9.92888 8.17239 10.7183 8.17239 11.53ZM7.99449 8.10539C8.5949 8.10539 9.08413 7.62728 9.09525 7.02686C9.10637 6.42645 8.60602 5.91498 7.99449 5.91498C7.39407 5.91498 6.8826 6.42645 6.89372 7.02686C6.90484 7.62728 7.39407 8.10539 7.99449 8.10539Z" fill="#34D1C6"/>
<path d="M2.99097 5.9707C4.02502 5.9707 5.03683 5.9707 6.07088 5.9707C6.07088 7.81643 6.07088 9.66216 6.07088 11.519C5.04795 11.519 4.03614 11.519 2.99097 11.519C2.99097 9.67327 2.99097 7.82755 2.99097 5.9707ZM4.70327 7.44951C4.959 7.44951 5.20361 7.44951 5.43711 7.44951C5.43711 7.24937 5.43711 7.06035 5.43711 6.88245C5.18138 6.88245 4.94788 6.88245 4.70327 6.88245C4.70327 7.07147 4.70327 7.24937 4.70327 7.44951ZM4.71439 8.38349C4.97012 8.38349 5.20361 8.38349 5.44823 8.38349C5.44823 8.18335 5.44823 8.00545 5.44823 7.81643C5.1925 7.81643 4.959 7.81643 4.71439 7.81643C4.71439 8.01657 4.71439 8.19447 4.71439 8.38349ZM3.62474 7.44951C3.86935 7.44951 4.10285 7.44951 4.34746 7.44951C4.34746 7.24937 4.34746 7.06035 4.34746 6.87133C4.09173 6.87133 3.86935 6.87133 3.62474 6.87133C3.62474 7.07147 3.62474 7.26049 3.62474 7.44951ZM4.34746 7.80531C4.10285 7.80531 3.86935 7.80531 3.63586 7.80531C3.63586 8.00545 3.63586 8.19447 3.63586 8.38349C3.88047 8.38349 4.11397 8.38349 4.34746 8.38349C4.34746 8.19447 4.34746 8.00545 4.34746 7.80531ZM3.62474 9.69551C3.86935 9.69551 4.10285 9.69551 4.34746 9.69551C4.34746 9.50649 4.34746 9.31747 4.34746 9.12845C4.10285 9.12845 3.86935 9.12845 3.62474 9.12845C3.62474 9.31747 3.62474 9.50649 3.62474 9.69551ZM5.44823 9.12845C5.1925 9.12845 4.959 9.12845 4.71439 9.12845C4.71439 9.32859 4.71439 9.50649 4.71439 9.68439C4.97012 9.68439 5.20361 9.68439 5.44823 9.68439C5.44823 9.49537 5.44823 9.31747 5.44823 9.12845ZM3.63586 10.0624C3.63586 10.2737 3.63586 10.4516 3.63586 10.6295C3.88047 10.6295 4.11397 10.6295 4.34746 10.6295C4.34746 10.4294 4.34746 10.2515 4.34746 10.0624C4.10285 10.0624 3.86935 10.0624 3.63586 10.0624ZM5.44823 10.6295C5.44823 10.4405 5.44823 10.2515 5.44823 10.0624C5.20361 10.0624 4.959 10.0624 4.7255 10.0624C4.7255 10.2626 4.7255 10.4405 4.7255 10.6295C4.959 10.6295 5.1925 10.6295 5.44823 10.6295Z" fill="#34D1C6"/>
<path d="M9.9292 11.5302C9.9292 9.67339 9.9292 7.82766 9.9292 5.98193C10.9521 5.98193 11.9751 5.98193 13.0091 5.98193C13.0091 7.83878 13.0091 9.67339 13.0091 11.5302C11.9751 11.5302 10.9633 11.5302 9.9292 11.5302ZM10.5519 7.44962C10.8076 7.44962 11.0411 7.44962 11.2857 7.44962C11.2857 7.24948 11.2857 7.07158 11.2857 6.88256C11.03 6.88256 10.7965 6.88256 10.5519 6.88256C10.5519 7.07158 10.5519 7.2606 10.5519 7.44962ZM10.5519 8.3836C10.8076 8.3836 11.0522 8.3836 11.2857 8.3836C11.2857 8.18346 11.2857 7.99444 11.2857 7.81654C11.03 7.81654 10.7965 7.81654 10.5519 7.81654C10.5519 8.00556 10.5519 8.18346 10.5519 8.3836ZM11.6415 7.44962C11.8972 7.44962 12.1307 7.44962 12.3642 7.44962C12.3642 7.24948 12.3642 7.07158 12.3642 6.87144C12.1196 6.87144 11.8861 6.87144 11.6415 6.87144C11.6415 7.07158 11.6415 7.24948 11.6415 7.44962ZM11.6526 7.80542C11.6526 8.01668 11.6526 8.19458 11.6526 8.3836C11.9084 8.3836 12.1418 8.3836 12.3753 8.3836C12.3753 8.18346 12.3753 8.00556 12.3753 7.80542C12.1307 7.80542 11.8972 7.80542 11.6526 7.80542ZM11.2857 9.70674C11.2857 9.51772 11.2857 9.3287 11.2857 9.13968C11.0411 9.13968 10.7965 9.13968 10.563 9.13968C10.563 9.33982 10.563 9.51772 10.563 9.70674C10.8076 9.70674 11.03 9.70674 11.2857 9.70674ZM11.6415 9.69562C11.8861 9.69562 12.1196 9.69562 12.3642 9.69562C12.3642 9.5066 12.3642 9.31758 12.3642 9.12856C12.1196 9.12856 11.8861 9.12856 11.6415 9.12856C11.6415 9.3287 11.6415 9.5066 11.6415 9.69562ZM10.563 10.0625C10.563 10.2738 10.563 10.4517 10.563 10.6296C10.8187 10.6296 11.0522 10.6296 11.2857 10.6296C11.2857 10.4295 11.2857 10.2516 11.2857 10.0625C11.0411 10.0625 10.8076 10.0625 10.563 10.0625ZM12.3642 10.0625C12.1196 10.0625 11.8861 10.0625 11.6415 10.0625C11.6415 10.2516 11.6415 10.4406 11.6415 10.6296C11.8861 10.6296 12.1196 10.6296 12.3642 10.6296C12.3642 10.4406 12.3642 10.2627 12.3642 10.0625Z" fill="#34D1C6"/>
<path d="M5.82617 3.68018C7.28274 3.68018 8.71707 3.68018 10.1736 3.68018C10.1736 4.01374 10.1736 4.33619 10.1736 4.68087C8.72819 4.68087 7.29386 4.68087 5.82617 4.68087C5.82617 4.34731 5.82617 4.01374 5.82617 3.68018Z" fill="#34D1C6"/>
<path d="M7.3606 6.8714C7.70528 6.89364 7.8943 6.74909 7.98325 6.41553C8.10556 6.70462 8.26122 6.91587 8.62814 6.86028C8.39465 7.07154 8.22786 7.2828 8.40577 7.62748C8.11668 7.42734 7.86094 7.4051 7.59409 7.6386C7.7164 7.31615 7.64969 7.07154 7.3606 6.8714Z" fill="#34D1C6"/>
</g>
<defs>
<clipPath id="clip0_464_558">
<rect width="16" height="16" fill="white"/>
</clipPath>
</defs>
</svg>
