<svg width="16" height="16" viewBox="0 0 16 16" fill="none" xmlns="http://www.w3.org/2000/svg">
<g clip-path="url(#clip0_236_746)">
<path opacity="0.3" d="M8 16.0001C12.4183 16.0001 16 12.4183 16 8.00006C16 3.58178 12.4183 6.10352e-05 8 6.10352e-05C3.58172 6.10352e-05 0 3.58178 0 8.00006C0 12.4183 3.58172 16.0001 8 16.0001Z" fill="#AF87CE"/>
<path fill-rule="evenodd" clip-rule="evenodd" d="M9.4908 6.42413C9.53895 5.80376 9.74821 5.15191 9.59821 4.57598C9.24636 3.75376 7.57969 3.36487 6.77969 3.51117C6.27969 4.35376 6.48525 5.39265 6.57784 6.35191L9.4908 6.42413Z" fill="#592D0D"/>
<path fill-rule="evenodd" clip-rule="evenodd" d="M8.02612 6.38895V3.58895C8.70946 3.75006 9.38723 4.08525 9.59835 4.57784C9.7502 5.15377 9.53909 5.80377 9.49094 6.42599L8.02612 6.38895Z" fill="#4A250A"/>
<path fill-rule="evenodd" clip-rule="evenodd" d="M8 12.2482C8.44259 12.2538 8.87778 12.2352 9.30741 12.1908V8.2482L9.16111 8.18339C8.83889 8.04265 8.43889 7.87969 8.00185 7.82043V12.2482H8Z" fill="#B2D8DE"/>
<path fill-rule="evenodd" clip-rule="evenodd" d="M8.00003 12.2482C7.55744 12.2538 7.12226 12.2352 6.69263 12.1908V8.2482L6.83892 8.18339C7.16115 8.04265 7.56115 7.87969 7.99818 7.82043V12.2482H8.00003Z" fill="#B2D8DE"/>
<path fill-rule="evenodd" clip-rule="evenodd" d="M7.06665 7.0445H8.93332V8.17043C8.31109 8.66487 7.68887 8.68524 7.06665 8.17043V7.0445Z" fill="#E0AC7E"/>
<path fill-rule="evenodd" clip-rule="evenodd" d="M7.23167 4.73339C6.96686 4.68154 6.71501 4.95191 6.66686 5.21673C6.62427 5.45932 6.59278 5.70932 6.58167 5.95932C6.57427 5.95747 6.61315 5.95747 6.55945 5.95747C6.50575 5.95747 6.33167 5.99635 6.34093 6.22784C6.34649 6.40191 6.49834 6.90376 6.69649 6.82228C6.98352 7.5908 7.36871 8.02413 8.00019 8.17784C8.0113 8.15747 8.01501 8.17228 8.02612 8.16672V4.81487C7.77056 4.81487 7.51686 4.78895 7.23167 4.73339Z" fill="#F2C196"/>
<path fill-rule="evenodd" clip-rule="evenodd" d="M8.79444 4.73339C9.05926 4.68154 9.31111 4.95191 9.35926 5.21673C9.4037 5.45932 9.43333 5.70932 9.44444 5.95932C9.45185 5.95747 9.41296 5.95747 9.46667 5.95747C9.52037 5.95747 9.69444 5.99635 9.68519 6.22784C9.67963 6.40191 9.52778 6.90376 9.32963 6.82228C9.03889 7.60006 8.6463 8.02969 8 8.17784V4.81487C8.25556 4.81487 8.50926 4.78895 8.79444 4.73339Z" fill="#EBB688"/>
<path fill-rule="evenodd" clip-rule="evenodd" d="M8.00016 8.54821H8.31868L8.18349 9.05562H8.00016H7.81683L7.68164 8.54821H8.00016Z" fill="#FF3705"/>
<path fill-rule="evenodd" clip-rule="evenodd" d="M8.18345 9.03895L8.31493 10.9556L8.00012 11.5297L7.6853 10.9556L7.81678 9.03895H8.18345Z" fill="#FF5527"/>
<path fill-rule="evenodd" clip-rule="evenodd" d="M7.99998 8.54821L7.45183 9.07969L6.83887 8.18339L7.06665 8.05932C7.29627 8.30191 7.61109 8.45561 7.99998 8.54821Z" fill="#F0FAFC"/>
<path fill-rule="evenodd" clip-rule="evenodd" d="M8.0001 11.4778L6.65565 8.26487C5.44084 8.78894 4.66121 9.19265 4.52417 10.7297C5.07602 11.7149 6.39269 12.5204 7.99824 12.5186V11.4778H8.0001Z" fill="#096385"/>
<path fill-rule="evenodd" clip-rule="evenodd" d="M5.62231 11.8501C5.67046 11.8834 5.72602 11.9112 5.77787 11.9445L5.77417 11.3075L5.62231 11.8501Z" fill="#08426A"/>
<path fill-rule="evenodd" clip-rule="evenodd" d="M8.00016 11.4778V12.2908L6.73534 10.026L7.11127 9.56858L6.53904 9.37784L6.27979 8.42969L6.90571 8.15562L8.00016 11.4778Z" fill="#0174A3"/>
<path fill-rule="evenodd" clip-rule="evenodd" d="M8 8.54821L8.54815 9.07969L9.16111 8.18339L8.93333 8.05932C8.7037 8.30191 8.38889 8.45561 8 8.54821Z" fill="#F0FAFC"/>
<path fill-rule="evenodd" clip-rule="evenodd" d="M8 11.4778L9.34444 8.26487C10.5593 8.78894 11.3389 9.19265 11.4759 10.7297C10.9222 11.7149 9.60556 12.5204 8 12.5186V11.4778Z" fill="#0B5975"/>
<path fill-rule="evenodd" clip-rule="evenodd" d="M10.378 11.8501C10.3298 11.8834 10.2743 11.9112 10.2224 11.9445L10.2261 11.3075L10.378 11.8501Z" fill="#08426A"/>
<path fill-rule="evenodd" clip-rule="evenodd" d="M8 11.4778V12.2908L9.26481 10.026L8.88889 9.56858L9.46111 9.37784L9.72037 8.42969L9.11667 8.16117L8 11.4778Z" fill="#0A6D94"/>
</g>
<defs>
<clipPath id="clip0_236_746">
<rect width="16" height="16" fill="white"/>
</clipPath>
</defs>
</svg>
