<svg width="16" height="16" viewBox="0 0 16 16" fill="none" xmlns="http://www.w3.org/2000/svg">
<g clip-path="url(#clip0_236_604)">
<path opacity="0.3" d="M8 16C12.4183 16 16 12.4183 16 8C16 3.58172 12.4183 0 8 0C3.58172 0 0 3.58172 0 8C0 12.4183 3.58172 16 8 16Z" fill="#0A6D94"/>
<path fill-rule="evenodd" clip-rule="evenodd" d="M6.00356 6.45185C6.0406 5.97037 6.20356 5.46482 6.08689 5.01852C5.81282 4.37963 4.52022 4.07963 3.89985 4.19259C3.51097 4.8463 3.67208 5.65185 3.74245 6.3963L6.00356 6.45185Z" fill="#592D0D"/>
<path fill-rule="evenodd" clip-rule="evenodd" d="M4.86646 6.42222V4.25C5.39608 4.37408 5.92386 4.63519 6.08683 5.01667C6.20349 5.46296 6.04053 5.96852 6.00349 6.45L4.86646 6.42222Z" fill="#4A250A"/>
<path fill-rule="evenodd" clip-rule="evenodd" d="M4.84619 10.9704C5.18878 10.9759 5.52767 10.9611 5.86101 10.9259V7.86667L5.74619 7.81667C5.49619 7.70741 5.18508 7.58148 4.84619 7.53519V10.9704Z" fill="#B2D8DE"/>
<path fill-rule="evenodd" clip-rule="evenodd" d="M4.84611 10.9704C4.50352 10.9759 4.16463 10.9611 3.8313 10.9259V7.86667L3.94611 7.81667C4.19611 7.70741 4.50723 7.58148 4.84611 7.53519V10.9704Z" fill="#B2D8DE"/>
<path fill-rule="evenodd" clip-rule="evenodd" d="M4.12207 6.93333H5.57022V7.80741C5.08688 8.19074 4.6054 8.20556 4.12207 7.80741V6.93333Z" fill="#E0AC7E"/>
<path fill-rule="evenodd" clip-rule="evenodd" d="M4.24989 5.13889C4.04433 5.09815 3.84804 5.30926 3.811 5.51482C3.77767 5.7037 3.75359 5.8963 3.74433 6.09074C3.73878 6.08889 3.76841 6.08889 3.72767 6.08889C3.68692 6.08889 3.55174 6.11852 3.5573 6.29815C3.56285 6.43333 3.67952 6.82222 3.83322 6.75926C4.05544 7.35556 4.35544 7.69259 4.84618 7.81111C4.85359 7.79445 4.85729 7.80741 4.86655 7.80185V5.20185C4.66841 5.20185 4.47026 5.18333 4.24989 5.13889Z" fill="#F2C196"/>
<path fill-rule="evenodd" clip-rule="evenodd" d="M5.46296 5.13889C5.66852 5.09815 5.86481 5.30926 5.90185 5.51482C5.93518 5.7037 5.95926 5.8963 5.96851 6.09074C5.97407 6.08889 5.94444 6.08889 5.98518 6.08889C6.02592 6.08889 6.16111 6.11852 6.15555 6.29815C6.15 6.43333 6.03333 6.82222 5.87963 6.75926C5.6537 7.36296 5.35 7.6963 4.84814 7.81111V5.20185C5.04444 5.20185 5.24259 5.18333 5.46296 5.13889Z" fill="#EBB688"/>
<path fill-rule="evenodd" clip-rule="evenodd" d="M4.84615 8.1H5.0943L4.98874 8.49259H4.84615H4.70356L4.59985 8.1H4.84615Z" fill="#FF3705"/>
<path fill-rule="evenodd" clip-rule="evenodd" d="M4.98884 8.48148L5.0907 9.96667L4.84625 10.413L4.60181 9.96667L4.70366 8.48148H4.98884Z" fill="#FF5527"/>
<path fill-rule="evenodd" clip-rule="evenodd" d="M4.84619 8.1L4.42026 8.51296L3.94434 7.81667L4.12026 7.72037C4.29989 7.90741 4.54434 8.02778 4.84619 8.1Z" fill="#F0FAFC"/>
<path fill-rule="evenodd" clip-rule="evenodd" d="M4.8462 10.3722L3.80361 7.87778C2.86101 8.28519 2.25546 8.59815 2.1499 9.79074C2.57768 10.5556 3.5999 11.1796 4.8462 11.1796V10.3722Z" fill="#096385"/>
<path fill-rule="evenodd" clip-rule="evenodd" d="M3.00171 10.6611C3.03875 10.687 3.08319 10.7093 3.12208 10.7333L3.11838 10.2389L3.00171 10.6611Z" fill="#08426A"/>
<path fill-rule="evenodd" clip-rule="evenodd" d="M4.84617 10.3722V11.0037L3.86469 9.2463L4.15728 8.89074L3.71284 8.74259L3.51099 8.00741L3.99802 7.79445L4.84617 10.3722Z" fill="#0174A3"/>
<path fill-rule="evenodd" clip-rule="evenodd" d="M4.84619 8.1L5.27027 8.51296L5.74619 7.81667L5.57026 7.72037C5.39249 7.90741 5.14804 8.02778 4.84619 8.1Z" fill="#F0FAFC"/>
<path fill-rule="evenodd" clip-rule="evenodd" d="M4.84619 10.3722L5.88878 7.87963C6.83138 8.28704 7.43693 8.6 7.54249 9.79259C7.11471 10.5574 6.09249 11.1815 4.84619 11.1815V10.3722Z" fill="#0B5975"/>
<path fill-rule="evenodd" clip-rule="evenodd" d="M6.69068 10.6611C6.65365 10.687 6.6092 10.7093 6.57031 10.7333L6.57402 10.2407L6.69068 10.6611Z" fill="#08426A"/>
<path fill-rule="evenodd" clip-rule="evenodd" d="M4.84619 10.3722V11.0037L5.82767 9.2463L5.53693 8.89074L5.98138 8.74259L6.18138 8.00741L5.71286 7.79815L4.84619 10.3722Z" fill="#0A6D94"/>
<path fill-rule="evenodd" clip-rule="evenodd" d="M12.3109 6.45185C12.348 5.97037 12.5109 5.46482 12.3943 5.01852C12.1202 4.37963 10.8276 4.07963 10.2072 4.19259C9.81836 4.8463 9.97947 5.65185 10.0517 6.3963L12.3109 6.45185Z" fill="#592D0D"/>
<path fill-rule="evenodd" clip-rule="evenodd" d="M11.1738 6.42222V4.25C11.7035 4.37408 12.2312 4.63519 12.3942 5.01667C12.5109 5.46296 12.3479 5.96852 12.3109 6.45L11.1738 6.42222Z" fill="#4A250A"/>
<path fill-rule="evenodd" clip-rule="evenodd" d="M11.1536 10.9704C11.4962 10.9759 11.835 10.9611 12.1684 10.9259V7.86667L12.0536 7.81667C11.8036 7.70741 11.4925 7.58148 11.1536 7.53519V10.9704Z" fill="#B2D8DE"/>
<path fill-rule="evenodd" clip-rule="evenodd" d="M11.1535 10.9704C10.8109 10.9759 10.472 10.9611 10.1387 10.9259V7.86667L10.2516 7.81667C10.5016 7.70741 10.8127 7.58148 11.1516 7.53519V10.9704H11.1535Z" fill="#B2D8DE"/>
<path fill-rule="evenodd" clip-rule="evenodd" d="M10.4294 6.93333H11.8776V7.80741C11.3943 8.19074 10.9128 8.20556 10.4294 7.80741V6.93333Z" fill="#E0AC7E"/>
<path fill-rule="evenodd" clip-rule="evenodd" d="M10.5573 5.13889C10.3517 5.09815 10.1554 5.30926 10.1184 5.51482C10.085 5.7037 10.061 5.8963 10.0517 6.09074C10.0461 6.08889 10.0758 6.08889 10.035 6.08889C9.9943 6.08889 9.85911 6.11852 9.86467 6.29815C9.87022 6.43333 9.98689 6.82222 10.1406 6.75926C10.3628 7.35556 10.6628 7.69259 11.1517 7.81111C11.1591 7.79445 11.1647 7.80741 11.1721 7.80185V5.20185C10.9758 5.20185 10.7776 5.18333 10.5573 5.13889Z" fill="#F2C196"/>
<path fill-rule="evenodd" clip-rule="evenodd" d="M11.7703 5.13889C11.9759 5.09815 12.1722 5.30926 12.2092 5.51482C12.2426 5.7037 12.2666 5.8963 12.2759 6.09074C12.2814 6.08889 12.2518 6.08889 12.2926 6.08889C12.3333 6.08889 12.4685 6.11852 12.4629 6.29815C12.4574 6.43333 12.3407 6.82222 12.187 6.75926C11.9611 7.36296 11.6574 7.6963 11.1555 7.81111V5.20185C11.3518 5.20185 11.5481 5.18333 11.7703 5.13889Z" fill="#EBB688"/>
<path fill-rule="evenodd" clip-rule="evenodd" d="M11.1537 8.1H11.4018L11.2963 8.49259H11.1537H11.0111L10.9055 8.1H11.1537Z" fill="#FF3705"/>
<path fill-rule="evenodd" clip-rule="evenodd" d="M11.2962 8.48148L11.3981 9.96667L11.1536 10.413L10.9092 9.96667L11.011 8.48148H11.2962Z" fill="#FF5527"/>
<path fill-rule="evenodd" clip-rule="evenodd" d="M11.1537 8.1L10.7296 8.51296L10.2537 7.81667L10.4296 7.72037C10.6074 7.90741 10.8518 8.02778 11.1537 8.1Z" fill="#F0FAFC"/>
<path fill-rule="evenodd" clip-rule="evenodd" d="M11.1536 10.3722L10.111 7.87963C9.16839 8.28704 8.56283 8.6 8.45728 9.79259C8.88505 10.5574 9.90727 11.1815 11.1536 11.1815V10.3722Z" fill="#096385"/>
<path fill-rule="evenodd" clip-rule="evenodd" d="M9.30908 10.6611C9.34612 10.687 9.39056 10.7093 9.42945 10.7333L9.42575 10.2407L9.30908 10.6611Z" fill="#08426A"/>
<path fill-rule="evenodd" clip-rule="evenodd" d="M11.1535 10.3722V11.0037L10.1721 9.2463L10.4647 8.89074L10.0202 8.74259L9.81836 8.00741L10.3035 7.79445L11.1535 10.3722Z" fill="#0174A3"/>
<path fill-rule="evenodd" clip-rule="evenodd" d="M11.1536 8.1L11.5776 8.51296L12.0536 7.81667L11.8776 7.72037C11.6999 7.90741 11.4554 8.02778 11.1536 8.1Z" fill="#F0FAFC"/>
<path fill-rule="evenodd" clip-rule="evenodd" d="M11.1536 10.3722L12.1962 7.87778C13.1387 8.28519 13.7443 8.59815 13.8499 9.79074C13.4221 10.5556 12.3999 11.1796 11.1536 11.1796V10.3722Z" fill="#0B5975"/>
<path fill-rule="evenodd" clip-rule="evenodd" d="M12.9981 10.6611C12.961 10.687 12.9184 10.7093 12.8777 10.7333L12.8814 10.2389L12.9981 10.6611Z" fill="#08426A"/>
<path fill-rule="evenodd" clip-rule="evenodd" d="M11.1536 10.3722V11.0037L12.135 9.2463L11.8425 8.89074L12.2869 8.74259L12.4888 8.00741L12.0202 7.79815L11.1536 10.3722Z" fill="#0A6D94"/>
<path fill-rule="evenodd" clip-rule="evenodd" d="M9.50926 6.42407C9.55741 5.8037 9.76666 5.15185 9.61667 4.57593C9.26296 3.7537 7.59815 3.36482 6.79629 3.51111C6.29629 4.3537 6.50185 5.39259 6.59444 6.35185L9.50926 6.42407Z" fill="#592D0D"/>
<path fill-rule="evenodd" clip-rule="evenodd" d="M8.04248 6.38889V3.58889C8.72581 3.75 9.40359 4.08519 9.6147 4.57778C9.76655 5.1537 9.55544 5.80556 9.5073 6.42593L8.04248 6.38889Z" fill="#4A250A"/>
<path fill-rule="evenodd" clip-rule="evenodd" d="M8.0166 12.2481C8.45919 12.2537 8.89438 12.2352 9.32401 12.1907V8.24815L9.17771 8.18333C8.85364 8.04259 8.45549 7.87963 8.01845 7.82037V12.2481H8.0166Z" fill="#B2D8DE"/>
<path fill-rule="evenodd" clip-rule="evenodd" d="M8.01664 12.2481C7.57404 12.2537 7.13886 12.2352 6.70923 12.1907V8.24815L6.85553 8.18333C7.17775 8.04259 7.57775 7.87963 8.01478 7.82037V12.2481H8.01664Z" fill="#B2D8DE"/>
<path fill-rule="evenodd" clip-rule="evenodd" d="M7.08496 7.04445H8.95163V8.17037C8.32941 8.66482 7.70718 8.68519 7.08496 8.17037V7.04445Z" fill="#E0AC7E"/>
<path fill-rule="evenodd" clip-rule="evenodd" d="M7.24998 4.73333C6.98517 4.68148 6.73332 4.95185 6.68517 5.21667C6.64072 5.45926 6.61109 5.70926 6.59998 5.95926C6.59258 5.95741 6.63147 5.95741 6.57776 5.95741C6.52406 5.95741 6.34998 5.9963 6.35924 6.22778C6.3648 6.40185 6.51665 6.9037 6.7148 6.82222C7.00184 7.59074 7.38702 8.02407 8.0185 8.17778C8.02961 8.15741 8.03332 8.17222 8.04443 8.16667V4.81481C7.78887 4.81481 7.53332 4.78889 7.24998 4.73333Z" fill="#F2C196"/>
<path fill-rule="evenodd" clip-rule="evenodd" d="M8.81105 4.73333C9.07586 4.68148 9.32771 4.95185 9.37586 5.21667C9.42031 5.45926 9.44993 5.70926 9.46105 5.95926C9.46845 5.95741 9.42956 5.95741 9.48327 5.95741C9.53697 5.95741 9.71105 5.9963 9.70179 6.22778C9.69623 6.40185 9.54438 6.9037 9.34623 6.82222C9.05549 7.6 8.6629 8.02963 8.0166 8.17778V4.81481C8.27216 4.81481 8.52771 4.78889 8.81105 4.73333Z" fill="#EBB688"/>
<path fill-rule="evenodd" clip-rule="evenodd" d="M8.01652 8.54815H8.33689L8.2017 9.05556H8.01837H8.01652H7.83318L7.698 8.54815H8.01652Z" fill="#FF3705"/>
<path fill-rule="evenodd" clip-rule="evenodd" d="M8.20176 9.03889L8.33139 10.9556L8.01658 11.5296L7.70361 10.9556L7.83324 9.03889H8.20176Z" fill="#FF5527"/>
<path fill-rule="evenodd" clip-rule="evenodd" d="M8.01658 8.54815L7.46843 9.07963L6.85547 8.18148L7.08325 8.05741C7.31288 8.30185 7.62769 8.45556 8.01658 8.54815Z" fill="#F0FAFC"/>
<path fill-rule="evenodd" clip-rule="evenodd" d="M8.01655 11.4778L6.67396 8.26481C5.45915 8.78889 4.67952 9.19259 4.54248 10.7296C5.09433 11.7148 6.411 12.5204 8.01655 12.5185V11.4778Z" fill="#096385"/>
<path fill-rule="evenodd" clip-rule="evenodd" d="M5.64062 11.85C5.68877 11.8833 5.74433 11.9111 5.79618 11.9444L5.79248 11.3074L5.64062 11.85Z" fill="#08426A"/>
<path fill-rule="evenodd" clip-rule="evenodd" d="M8.01661 11.4778V12.2907L6.75365 10.0259L7.12958 9.56852L6.5555 9.37778L6.2981 8.42963L6.92402 8.15556L8.01661 11.4778Z" fill="#0174A3"/>
<path fill-rule="evenodd" clip-rule="evenodd" d="M8.0166 8.54815L8.56475 9.07963L9.17771 8.18148L8.94993 8.05741C8.72216 8.30185 8.40734 8.45556 8.0166 8.54815Z" fill="#F0FAFC"/>
<path fill-rule="evenodd" clip-rule="evenodd" d="M8.0166 11.4778L9.36105 8.26481C10.5759 8.78889 11.3555 9.19259 11.4925 10.7296C10.9407 11.7148 9.62401 12.5204 8.0166 12.5185V11.4778Z" fill="#0B5975"/>
<path fill-rule="evenodd" clip-rule="evenodd" d="M10.3943 11.85C10.3462 11.8833 10.2906 11.9111 10.2388 11.9444L10.2425 11.3074L10.3943 11.85Z" fill="#08426A"/>
<path fill-rule="evenodd" clip-rule="evenodd" d="M8.0166 11.4778V12.2907L9.28327 10.0259L8.90549 9.56852L9.47956 9.37778L9.73697 8.42963L9.13512 8.16111L8.0166 11.4778Z" fill="#0A6D94"/>
</g>
<defs>
<clipPath id="clip0_236_604">
<rect width="16" height="16" fill="white"/>
</clipPath>
</defs>
</svg>
