<svg width="14" height="10" viewBox="0 0 14 10" fill="none" xmlns="http://www.w3.org/2000/svg">
<g clip-path="url(#clip0_236_867)">
<path d="M2.21427 6.39226L1.24595 9.3243H0L3.16904 0H4.62152L7.80411 9.3243H6.51753L5.51874 6.39226H2.21427ZM5.27158 5.45103L4.35744 2.76614C4.15091 2.15671 4.01209 1.60484 3.87328 1.06312H3.84619C3.70738 1.61499 3.55502 2.1838 3.37557 2.74921L2.46143 5.44764H5.27158V5.45103Z" fill="#0DB0E6"/>
<path d="M12.8928 9.32431L12.7946 8.48126H12.754C12.3815 9.00605 11.6604 9.47667 10.7056 9.47667C9.3513 9.47667 8.65723 8.52189 8.65723 7.55357C8.65723 5.93519 10.0962 5.04813 12.6829 5.06506V4.92624C12.6829 4.37437 12.5305 3.37558 11.1627 3.37558C10.5397 3.37558 9.88963 3.56857 9.41902 3.87328L9.14139 3.07086C9.69326 2.71198 10.4957 2.47498 11.3421 2.47498C13.3905 2.47498 13.8882 3.87328 13.8882 5.21403V7.71947C13.8882 8.30182 13.9153 8.86724 13.9999 9.32431H12.8928ZM12.7133 5.90811C11.3861 5.88102 9.87609 6.11464 9.87609 7.41476C9.87609 8.20363 10.4009 8.57606 11.0239 8.57606C11.894 8.57606 12.4492 8.02419 12.6422 7.45539C12.6829 7.33011 12.7099 7.1913 12.7099 7.06941V5.90811H12.7133Z" fill="#0DB0E6"/>
</g>
<defs>
<clipPath id="clip0_236_867">
<rect width="14" height="9.47666" fill="white"/>
</clipPath>
</defs>
</svg>
