<svg width="16" height="16" viewBox="0 0 16 16" fill="none" xmlns="http://www.w3.org/2000/svg">
<g clip-path="url(#clip0_385_631)">
<path d="M15.4889 7.99444C15.4889 12.1335 12.1335 15.4889 7.99444 15.4889C3.85538 15.4889 0.5 12.1335 0.5 7.99444C0.5 3.85538 3.85538 0.5 7.99444 0.5C12.1335 0.5 15.4889 3.85538 15.4889 7.99444Z" fill="#9B59B6" fill-opacity="0.2" stroke="#D161FF"/>
<path d="M6.91594 12.0083C6.91594 12.1529 6.91594 12.2863 6.91594 12.442C6.54902 12.1862 6.46007 11.7192 6.62685 11.1522C6.66021 11.2078 6.68245 11.2634 6.7158 11.3301C7.03825 11.2634 7.3607 11.2078 7.69426 11.1411C7.63867 10.7853 7.59419 10.4295 7.54972 10.0848C7.47188 9.56219 7.39405 9.02849 7.31622 8.50591C7.3051 8.45031 7.27174 8.37248 7.23839 8.36136C7.19391 8.35024 7.1272 8.39472 7.08272 8.43919C6.52678 8.99513 5.97084 9.53996 5.4149 10.0959C5.38154 10.1293 5.34819 10.1737 5.30371 10.2071C5.20364 10.2738 5.10357 10.2849 5.01462 10.196C4.92567 10.107 4.93679 10.0069 5.0035 9.90688C5.03686 9.8624 5.07022 9.82905 5.11469 9.79569C5.6484 9.26199 6.1821 8.72828 6.7158 8.19458C6.76028 8.1501 6.82699 8.12787 6.88259 8.09451C6.87147 8.07227 6.86035 8.03891 6.84923 8.01668C6.51566 7.92773 6.1821 7.83878 5.84853 7.76094C5.61504 7.70535 5.58168 7.67199 5.57056 7.42738C5.55944 7.08269 5.61504 7.00486 5.92637 6.90479C6.14874 6.83808 6.37112 6.79361 6.5935 6.71577C6.72692 6.6713 6.84923 6.58235 6.99377 6.50452C6.91594 6.42668 6.88259 6.38221 6.83811 6.33773C6.25993 5.75955 5.69287 5.19249 5.11469 4.61431C5.08133 4.58096 5.03686 4.5476 5.0035 4.50313C4.93679 4.41417 4.92567 4.30299 5.0035 4.21404C5.09245 4.12509 5.20364 4.1362 5.30371 4.20292C5.34819 4.23627 5.38154 4.26963 5.4149 4.3141C5.92637 4.82557 6.43783 5.32592 6.93818 5.83739C6.98266 5.88186 7.00489 5.94857 7.04937 5.99305C7.07161 5.98193 7.09384 5.97081 7.11608 5.95969C7.14944 5.73732 7.16056 5.51494 7.20503 5.29256C7.28286 4.91452 7.34958 4.53648 7.44965 4.15844C7.49412 4.00278 7.58307 3.84711 7.68314 3.71369C7.84992 3.48019 8.00559 3.48019 8.18349 3.71369C8.28356 3.84711 8.38363 3.99166 8.4281 4.14732C8.53929 4.56984 8.61712 5.00347 8.70607 5.43711C8.75055 5.63725 8.77279 5.8485 8.79503 6.04864C8.81726 6.05976 8.8395 6.082 8.86174 6.09312C8.89509 6.03752 8.91733 5.97081 8.96181 5.92634C9.50663 5.37039 10.0626 4.82557 10.6074 4.28075C10.6519 4.23627 10.6963 4.16956 10.7519 4.15844C10.8298 4.14732 10.941 4.14732 10.9854 4.1918C11.0299 4.24739 11.041 4.35858 11.0188 4.43641C11.0077 4.49201 10.941 4.53648 10.8965 4.58096C10.3072 5.18137 9.70677 5.77067 9.10635 6.35997C9.06188 6.40445 9.00628 6.42668 8.95069 6.47116C8.96181 6.4934 8.96181 6.51563 8.97293 6.53787C9.08411 6.59347 9.1953 6.64906 9.31761 6.69354C9.58446 6.78249 9.85131 6.8492 10.1182 6.92703C10.2294 6.96039 10.3072 7.01598 10.3072 7.13829C10.3072 7.21612 10.3294 7.28283 10.3294 7.36067C10.3405 7.63864 10.2961 7.68311 10.0292 7.73871C9.72901 7.80542 9.43992 7.88325 9.10635 7.9722C9.17307 8.03891 9.21754 8.08339 9.2509 8.12786C9.79572 8.67269 10.3517 9.22863 10.8965 9.77345C10.941 9.81793 11.0077 9.8624 11.0188 9.918C11.0299 9.99583 11.0299 10.107 10.9854 10.1515C10.941 10.196 10.8298 10.2071 10.7519 10.196C10.6963 10.1848 10.6519 10.1293 10.6074 10.0848C10.0403 9.51772 9.47327 8.95066 8.90621 8.39472C8.86174 8.35024 8.78391 8.328 8.72831 8.31689C8.61712 8.31689 8.606 8.39472 8.58377 8.49479C8.46146 9.33982 8.33915 10.1848 8.21685 11.0188C8.21685 11.0521 8.21685 11.0744 8.21685 11.1188C8.53929 11.1855 8.85062 11.2411 9.17307 11.3079C9.20642 11.2523 9.23978 11.1967 9.26202 11.1522C9.45104 11.5969 9.35097 12.1418 9.03964 12.3975C8.90621 12.2752 8.93957 12.1418 9.02852 11.9861C8.72831 12.0417 8.46146 12.0973 8.18349 12.1529C8.13901 12.164 8.10566 12.2196 8.0723 12.253C8.02783 12.2863 7.98335 12.353 7.92776 12.353C7.88328 12.353 7.83881 12.2863 7.78321 12.253C7.73874 12.2085 7.69426 12.1529 7.63867 12.1418C7.41629 12.0973 7.16056 12.0528 6.91594 12.0083Z" fill="#D161FF"/>
</g>
<defs>
<clipPath id="clip0_385_631">
<rect width="16" height="16" fill="white"/>
</clipPath>
</defs>
</svg>
