<svg width="16" height="16" viewBox="0 0 16 16" fill="none" xmlns="http://www.w3.org/2000/svg">
<g clip-path="url(#clip0_250_1648)">
<path d="M15.4889 7.99444C15.4889 12.1335 12.1335 15.4889 7.99444 15.4889C3.85538 15.4889 0.5 12.1335 0.5 7.99444C0.5 3.85538 3.85538 0.5 7.99444 0.5C12.1335 0.5 15.4889 3.85538 15.4889 7.99444Z" fill="#00FF00" fill-opacity="0.15" stroke="#00FF00"/>
<path d="M7.99469 9.59557C7.48322 10.0514 6.98288 10.4962 6.49365 10.9521C6.14896 11.2634 5.80428 11.5636 5.47072 11.8749C5.37065 11.9639 5.25946 12.0417 5.11491 11.975C4.97037 11.9083 4.93701 11.786 4.93701 11.6414C4.93701 11.1411 4.93701 10.6296 4.93701 10.1293C4.93701 9.99585 4.98149 9.89578 5.08156 9.80683C5.97106 9.00627 6.86057 8.20572 7.75008 7.40516C7.9391 7.23838 8.03917 7.23838 8.22819 7.40516C9.11769 8.20572 10.0072 9.00627 10.8967 9.81795C10.9745 9.88466 11.0301 10.0181 11.0413 10.1293C11.0524 10.6407 11.0413 11.1522 11.0524 11.6637C11.0524 11.8082 11.019 11.9194 10.8856 11.9861C10.741 12.0528 10.6299 11.9861 10.5187 11.8861C9.74035 11.1856 8.96203 10.4851 8.18371 9.78459C8.12812 9.71788 8.07252 9.66229 7.99469 9.59557Z" fill="#00FF00"/>
<path fill-rule="evenodd" clip-rule="evenodd" d="M7.86081 7.52969L5.19215 9.93148C5.12795 9.98855 5.10358 10.0431 5.10358 10.1293V11.6414C5.10358 11.7034 5.11121 11.7421 5.12287 11.7673C5.13198 11.7869 5.1468 11.8061 5.18459 11.8236C5.21339 11.8368 5.23056 11.8348 5.24991 11.8275C5.27764 11.8169 5.31087 11.7935 5.35823 11.7516C5.57724 11.5472 5.8023 11.3464 6.02738 11.1456C6.14544 11.0403 6.26349 10.935 6.38069 10.8292C6.84438 10.3971 7.31789 9.97512 7.7997 9.54575C7.82761 9.52087 7.85555 9.49598 7.88351 9.47106L7.99234 9.37406L8.10302 9.46893C8.18318 9.53764 8.24383 9.59756 8.30374 9.66841L10.63 11.7621C10.6816 11.8085 10.717 11.8316 10.7443 11.8411C10.7629 11.8476 10.7816 11.8498 10.8132 11.8357C10.8467 11.8185 10.8595 11.8012 10.8674 11.7842C10.8777 11.7618 10.8852 11.7262 10.8854 11.6654C10.8798 11.4085 10.8798 11.1519 10.8798 10.8974V10.8965C10.8798 10.6429 10.8798 10.3913 10.8745 10.1401C10.8702 10.105 10.8589 10.0637 10.8417 10.0254C10.8229 9.98363 10.8023 9.95685 10.788 9.94457L10.786 9.94288L10.7841 9.94114C9.89527 9.1301 9.0064 8.33011 8.11703 7.52969C8.02629 7.44972 7.99498 7.44685 7.98892 7.44685C7.98286 7.44685 7.95155 7.44972 7.86081 7.52969ZM7.98892 7.11328C8.12739 7.11328 8.24051 7.19378 8.33832 7.28009L8.33894 7.28063L8.33955 7.28118L8.33966 7.28128C9.2285 8.08124 10.1178 8.88164 11.0072 9.69321C11.0696 9.74745 11.115 9.81983 11.1459 9.88848C11.1777 9.95924 11.1995 10.0378 11.207 10.1127L11.2076 10.1191L11.2078 10.1256C11.2134 10.3832 11.2134 10.6404 11.2134 10.8955V10.8965C11.2134 11.1525 11.2134 11.4064 11.2189 11.66L11.2189 11.6619V11.6637C11.2189 11.7464 11.2099 11.8381 11.1702 11.924C11.1282 12.015 11.0581 12.0862 10.96 12.1353L10.9576 12.1365L10.9553 12.1375C10.8437 12.189 10.735 12.1912 10.6345 12.1561C10.5423 12.124 10.4665 12.0637 10.4069 12.01L8.06304 9.90054L8.05538 9.89135C8.03491 9.86679 8.01442 9.84388 7.9922 9.821C7.51992 10.2419 7.05871 10.6533 6.60714 11.0741L6.60619 11.075L6.60523 11.0758C6.48437 11.185 6.3644 11.292 6.24534 11.3982C6.02169 11.5977 5.80128 11.7943 5.5843 11.9968L5.58282 11.9982L5.58131 11.9996C5.52938 12.0457 5.45739 12.1054 5.36866 12.1392C5.27126 12.1763 5.16057 12.1798 5.04481 12.1264C4.93806 12.0772 4.86393 12.0018 4.82022 11.9075C4.77907 11.8187 4.77002 11.724 4.77002 11.6414V10.1293C4.77002 9.94872 4.83449 9.80327 4.97015 9.68251C4.97028 9.6824 4.97041 9.68228 4.97054 9.68216L7.6389 7.28063L7.63952 7.28009C7.73734 7.19378 7.85045 7.11328 7.98892 7.11328Z" fill="white"/>
<path d="M7.99469 5.426C7.60553 5.7818 7.23861 6.11537 6.86057 6.44893C6.4047 6.86033 5.93771 7.27173 5.48183 7.69424C5.38176 7.78319 5.27058 7.87214 5.11491 7.80543C4.95925 7.73872 4.93701 7.60529 4.93701 7.46075C4.93701 6.97152 4.93701 6.47117 4.93701 5.98194C4.93701 5.8374 4.98149 5.72621 5.09268 5.62614C5.98218 4.82558 6.87169 4.03615 7.75008 3.23559C7.9391 3.06881 8.05028 3.06881 8.22819 3.23559C9.11769 4.03615 10.0072 4.8367 10.8967 5.63726C10.9968 5.72621 11.0413 5.82628 11.0413 5.9597C11.0413 6.46005 11.0413 6.97152 11.0413 7.47187C11.0413 7.61641 11.0079 7.73872 10.8633 7.80543C10.7188 7.87214 10.6187 7.79431 10.5075 7.70536C9.74035 7.01599 8.97315 6.31551 8.19483 5.62614C8.15035 5.57055 8.08364 5.50383 7.99469 5.426Z" fill="#00FF00"/>
<path fill-rule="evenodd" clip-rule="evenodd" d="M7.86118 3.3598C7.28599 3.88402 6.70553 4.40393 6.12404 4.92475C5.81745 5.19936 5.51057 5.47423 5.20404 5.75011C5.1305 5.81629 5.10358 5.8812 5.10358 5.98195V7.46075C5.10358 7.52823 5.10955 7.57 5.12123 7.59788C5.12946 7.61755 5.14225 7.63579 5.1804 7.65214C5.21357 7.66635 5.23322 7.66332 5.25461 7.65437C5.28535 7.6415 5.31908 7.61552 5.36954 7.57073C5.67978 7.28322 5.99592 7.00013 6.30897 6.71982C6.45652 6.58769 6.60339 6.45619 6.74862 6.32512L6.74931 6.32449L6.75001 6.32388C7.1269 5.99133 7.49292 5.65859 7.88194 5.30291L7.99204 5.20225L8.10431 5.30049C8.19118 5.3765 8.26279 5.44669 8.31538 5.51031C8.82275 5.95981 9.32599 6.41451 9.8269 6.8671C10.0902 7.10503 10.3529 7.34238 10.6152 7.57809C10.6728 7.62406 10.705 7.64732 10.7334 7.6584C10.7447 7.66285 10.7524 7.66385 10.7585 7.66371C10.7646 7.66358 10.7755 7.6622 10.7932 7.654C10.831 7.63656 10.8459 7.61737 10.855 7.59771C10.8666 7.57255 10.8743 7.53383 10.8743 7.47187V5.95971C10.8743 5.87358 10.8499 5.81899 10.7857 5.76192L10.7849 5.76123L8.11514 3.35843L8.11391 3.35727C8.03162 3.28012 7.99996 3.27729 7.99309 3.27729C7.98423 3.27729 7.94952 3.28205 7.86118 3.3598ZM8.34077 3.11273C8.24543 3.02357 8.13292 2.94373 7.99309 2.94373C7.85466 2.94373 7.73949 3.02232 7.63952 3.11054L7.63851 3.11142L7.63752 3.11233C7.06297 3.63597 6.48416 4.1544 5.90308 4.67486C5.59622 4.94971 5.28873 5.22513 4.98089 5.50218C4.83205 5.63613 4.77002 5.79361 4.77002 5.98195V7.46075C4.77002 7.53782 4.77517 7.63504 4.81353 7.72668C4.85533 7.82653 4.9315 7.90837 5.049 7.95873C5.1715 8.01123 5.28528 8.00314 5.38341 7.96206C5.47195 7.925 5.54353 7.86237 5.59243 7.8189L5.59373 7.81775L5.595 7.81657C5.90357 7.53058 6.21646 7.2504 6.52877 6.97076C6.67663 6.83836 6.82435 6.70608 6.97142 6.57337C7.31337 6.27164 7.64607 5.97006 7.99364 5.65269C8.02325 5.68231 8.04664 5.70815 8.06438 5.73033L8.07332 5.74151L8.08404 5.751C8.59374 6.20244 9.09808 6.65814 9.60149 7.113C9.86633 7.35229 10.1309 7.59134 10.3959 7.82942L10.3994 7.83262L10.4031 7.8356C10.4048 7.8369 10.4064 7.83822 10.4081 7.83956C10.459 7.88036 10.5298 7.93704 10.6121 7.96915C10.7095 8.00715 10.8178 8.01003 10.933 7.95687C11.0398 7.9076 11.1139 7.83228 11.1576 7.73797C11.1988 7.64916 11.2078 7.55445 11.2078 7.47187V5.95971C11.2078 5.77918 11.1434 5.63374 11.0077 5.51299C11.0076 5.51286 11.0074 5.51273 11.0073 5.51261L8.34077 3.11273Z" fill="white"/>
</g>
<defs>
<clipPath id="clip0_250_1648">
<rect width="16" height="16" fill="white"/>
</clipPath>
</defs>
</svg>
