<svg width="16" height="16" viewBox="0 0 16 16" fill="none" xmlns="http://www.w3.org/2000/svg">
<g clip-path="url(#clip0_250_1656)">
<path d="M15.4889 7.99444C15.4889 12.1335 12.1335 15.4889 7.99444 15.4889C3.85538 15.4889 0.5 12.1335 0.5 7.99444C0.5 3.85538 3.85538 0.5 7.99444 0.5C12.1335 0.5 15.4889 3.85538 15.4889 7.99444Z" fill="#00FF00" fill-opacity="0.15" stroke="#00FF00"/>
<path d="M8.00002 11.357C9.85401 11.357 11.357 9.85401 11.357 8.00002C11.357 6.14602 9.85401 4.64307 8.00002 4.64307C6.14602 4.64307 4.64307 6.14602 4.64307 8.00002C4.64307 9.85401 6.14602 11.357 8.00002 11.357Z" fill="#00FF00"/>
<path d="M8.00015 11.4909C6.07169 11.4909 4.50928 9.91955 4.50928 8.00001C4.50928 6.08048 6.07169 4.50914 8.00015 4.50914C9.92861 4.50914 11.491 6.07155 11.491 8.00001C11.491 9.92847 9.91968 11.4909 8.00015 11.4909ZM8.00015 4.77698C6.22347 4.77698 4.77712 6.22333 4.77712 8.00001C4.77712 9.7767 6.22347 11.223 8.00015 11.223C9.77683 11.223 11.2232 9.7767 11.2232 8.00001C11.2232 6.22333 9.77683 4.77698 8.00015 4.77698Z" fill="white"/>
</g>
<defs>
<clipPath id="clip0_250_1656">
<rect width="16" height="16" fill="white"/>
</clipPath>
</defs>
</svg>
