<svg width="16" height="16" viewBox="0 0 16 16" fill="none" xmlns="http://www.w3.org/2000/svg">
<g clip-path="url(#clip0_464_572)">
<path d="M15.4889 7.99444C15.4889 12.1335 12.1335 15.4889 7.99444 15.4889C3.85538 15.4889 0.5 12.1335 0.5 7.99444C0.5 3.85538 3.85538 0.5 7.99444 0.5C12.1335 0.5 15.4889 3.85538 15.4889 7.99444Z" fill="#F7A669" fill-opacity="0.2" stroke="#F7A669"/>
<path d="M11.2562 7.60951H12C12 7.51314 11.9568 7.36421 11.9135 7.2766L11.3686 6.36546L11.2303 5.97121H11.6454C11.7146 5.97121 11.7751 5.90989 11.7751 5.8398C11.7751 5.76971 11.7146 5.70839 11.6454 5.70839H11.1351L10.6595 4.36796C10.5903 4.16646 10.3568 4 10.1405 4H5.85946C5.64324 4 5.40973 4.16646 5.34054 4.36796L4.86486 5.70839H4.35459C4.28541 5.70839 4.22486 5.76971 4.22486 5.8398C4.22486 5.90989 4.28541 5.97121 4.35459 5.97121H4.76973L4.6227 6.36546L4.08649 7.2766C4.03459 7.36421 4 7.51314 4 7.60951H4.74378C5.21946 7.60951 5.60865 8.00375 5.60865 8.48561H4V9.14268V9.89612H4.17297V11H5.55676V9.89612H5.82486H6.53405H9.4573H10.1578H10.4259V11H11.8097V9.89612H11.9827V9.14268V8.48561H10.3914C10.3914 7.99499 10.7805 7.60951 11.2562 7.60951ZM9.63892 8.0826H8.13405V8.48561C8.13405 8.55569 8.07351 8.61702 8.00432 8.61702C7.93514 8.61702 7.87459 8.55569 7.87459 8.48561V8.0826H6.36108C6.29189 8.0826 6.23135 8.02128 6.23135 7.95119C6.23135 7.8811 6.29189 7.81977 6.36108 7.81977H7.86595V7.41677C7.86595 7.34668 7.92649 7.28536 7.99568 7.28536C8.06487 7.28536 8.12541 7.34668 8.12541 7.41677V7.81977H9.63027C9.69946 7.81977 9.76 7.8811 9.76 7.95119C9.76865 8.02128 9.70811 8.0826 9.63892 8.0826ZM4.90811 6.36546L5.04649 5.97121L5.14162 5.70839L5.5827 4.45557C5.6173 4.3592 5.74703 4.26283 5.85081 4.26283H10.1319C10.2357 4.26283 10.3654 4.3592 10.4 4.45557L10.8411 5.69962L10.9362 5.96245L11.0746 6.3567H4.90811V6.36546Z" fill="#F7A669"/>
</g>
<defs>
<clipPath id="clip0_464_572">
<rect width="16" height="16" fill="white"/>
</clipPath>
</defs>
</svg>
