<svg width="16" height="16" viewBox="0 0 16 16" fill="none" xmlns="http://www.w3.org/2000/svg">
<g clip-path="url(#clip0_375_492)">
<path opacity="0.2" d="M7.99444 15.9889C12.4096 15.9889 15.9889 12.4096 15.9889 7.99444C15.9889 3.57923 12.4096 0 7.99444 0C3.57923 0 0 3.57923 0 7.99444C0 12.4096 3.57923 15.9889 7.99444 15.9889Z" fill="#F7A669"/>
<path d="M12.1861 8.13897H13.1423C13.1423 8.01667 13.0867 7.82765 13.0312 7.71646L12.3307 6.5601L12.1528 6.05975H12.6865C12.7754 6.05975 12.8533 5.98192 12.8533 5.89297C12.8533 5.80402 12.7754 5.72619 12.6865 5.72619H12.0305L11.4189 4.025C11.33 3.76927 11.0298 3.55801 10.7518 3.55801H5.24797C4.97 3.55801 4.66979 3.76927 4.58084 4.025L3.96931 5.72619H3.31329C3.22434 5.72619 3.14651 5.80402 3.14651 5.89297C3.14651 5.98192 3.22434 6.05975 3.31329 6.05975H3.847L3.65798 6.5601L2.96861 7.71646C2.9019 7.82765 2.85742 8.01667 2.85742 8.13897H3.81364C4.42518 8.13897 4.92552 8.63932 4.92552 9.25086H2.85742V10.0848V11.041H3.0798V12.442H4.85881V11.041H5.2035H6.11524H9.87341H10.774H11.1187V12.442H12.8977V11.041H13.1201V10.0848V9.25086H11.0742C11.0742 8.6282 11.5746 8.13897 12.1861 8.13897ZM10.1069 8.73939H8.17222V9.25086C8.17222 9.33981 8.09439 9.41764 8.00544 9.41764C7.91649 9.41764 7.83866 9.33981 7.83866 9.25086V8.73939H5.89286C5.80391 8.73939 5.72608 8.66156 5.72608 8.57261C5.72608 8.48366 5.80391 8.40582 5.89286 8.40582H7.82754V7.89436C7.82754 7.80541 7.90537 7.72758 7.99432 7.72758C8.08327 7.72758 8.16111 7.80541 8.16111 7.89436V8.40582H10.0958C10.1847 8.40582 10.2626 8.48366 10.2626 8.57261C10.2737 8.66156 10.1959 8.73939 10.1069 8.73939ZM4.0249 6.5601L4.2028 6.05975L4.32511 5.72619L4.89217 4.13619C4.93664 4.01389 5.10343 3.89158 5.23685 3.89158H10.7407C10.8741 3.89158 11.0409 4.01389 11.0854 4.13619L11.6524 5.71507L11.7747 6.04863L11.9526 6.54898H4.0249V6.5601Z" fill="#F7A669"/>
</g>
<defs>
<clipPath id="clip0_375_492">
<rect width="16" height="16" fill="white"/>
</clipPath>
</defs>
</svg>
