<svg width="16" height="16" viewBox="0 0 16 16" fill="none" xmlns="http://www.w3.org/2000/svg">
<g clip-path="url(#clip0_464_588)">
<path d="M15.4889 7.99444C15.4889 12.1335 12.1335 15.4889 7.99444 15.4889C3.85538 15.4889 0.5 12.1335 0.5 7.99444C0.5 3.85538 3.85538 0.5 7.99444 0.5C12.1335 0.5 15.4889 3.85538 15.4889 7.99444Z" fill="#F28482" fill-opacity="0.2" stroke="#F28482"/>
<path d="M7.10484 6.19336C7.64967 6.19336 8.18337 6.19336 8.72819 6.19336C9.45092 6.19336 9.99574 6.71594 10.0069 7.43867C10.018 8.40601 10.018 9.37335 10.0069 10.3518C9.99574 11.0745 9.46204 11.6082 8.73931 11.6082C7.63855 11.6193 6.53778 11.6193 5.43702 11.6082C4.70318 11.5971 4.16947 11.0634 4.16947 10.3296C4.15835 9.38446 4.15835 8.42825 4.16947 7.48314C4.16947 6.72706 4.71429 6.19336 5.47038 6.19336C6.0152 6.19336 6.56002 6.19336 7.10484 6.19336Z" fill="#F28482"/>
<path d="M10.396 10.6965C10.396 9.48459 10.396 8.29487 10.396 7.09404C10.4516 7.0718 10.5294 7.03845 10.5961 7.02733C11.0298 6.8939 11.4634 6.77159 11.9082 6.64929C12.2417 6.54922 12.4975 6.72712 12.4975 7.0718C12.5086 8.30599 12.5086 9.52907 12.4975 10.7633C12.4975 11.0968 12.2417 11.2636 11.9304 11.1747C11.4412 11.0301 10.9519 10.8856 10.4516 10.741C10.4294 10.7188 10.4182 10.7077 10.396 10.6965Z" fill="#F28482"/>
<path d="M7.09371 3.26904C7.80532 3.28016 8.42797 3.51366 8.96167 3.99177C9.19517 4.19191 9.22853 4.44764 9.05063 4.63666C8.88384 4.82568 8.65035 4.81456 8.41685 4.61442C7.62741 3.92505 6.57113 3.93617 5.77057 4.62554C5.54819 4.82568 5.30358 4.82568 5.1368 4.63666C4.97001 4.44764 5.00337 4.20302 5.22575 4.00289C5.73721 3.52478 6.37099 3.28016 7.09371 3.26904Z" fill="#F28482"/>
<path d="M7.16037 4.66992C7.44946 4.68104 7.76079 4.79223 8.01652 5.03684C8.20554 5.21474 8.2389 5.45936 8.08323 5.64838C7.92757 5.82628 7.68296 5.8374 7.4717 5.67062C7.19373 5.44824 6.97135 5.44824 6.69338 5.68174C6.49324 5.8374 6.25975 5.82628 6.10408 5.6595C5.94842 5.49272 5.95954 5.2481 6.13744 5.0702C6.37093 4.81447 6.73786 4.66992 7.16037 4.66992Z" fill="#F28482"/>
</g>
<defs>
<clipPath id="clip0_464_588">
<rect width="16" height="16" fill="white"/>
</clipPath>
</defs>
</svg>
