<svg width="16" height="16" viewBox="0 0 16 16" fill="none" xmlns="http://www.w3.org/2000/svg">
<g clip-path="url(#clip0_375_498)">
<path opacity="0.3" d="M7.99444 15.9889C12.4096 15.9889 15.9889 12.4096 15.9889 7.99444C15.9889 3.57923 12.4096 0 7.99444 0C3.57923 0 0 3.57923 0 7.99444C0 12.4096 3.57923 15.9889 7.99444 15.9889Z" fill="#F28482"/>
<path d="M7.10484 6.19321C7.64967 6.19321 8.18337 6.19321 8.72819 6.19321C9.45092 6.19321 9.99574 6.71579 10.0069 7.43852C10.018 8.40585 10.018 9.37319 10.0069 10.3517C9.99574 11.0744 9.46204 11.6081 8.73931 11.6081C7.63855 11.6192 6.53778 11.6192 5.43702 11.6081C4.70318 11.597 4.16947 11.0633 4.16947 10.3294C4.15835 9.38431 4.15835 8.42809 4.16947 7.48299C4.16947 6.72691 4.71429 6.19321 5.47038 6.19321C6.0152 6.19321 6.56002 6.19321 7.10484 6.19321Z" fill="#F28482"/>
<path d="M10.396 10.6963C10.396 9.48438 10.396 8.29466 10.396 7.09383C10.4516 7.07159 10.5294 7.03823 10.5961 7.02711C11.0298 6.89369 11.4634 6.77138 11.9082 6.64907C12.2417 6.549 12.4975 6.72691 12.4975 7.07159C12.5086 8.30578 12.5086 9.52885 12.4975 10.763C12.4975 11.0966 12.2417 11.2634 11.9304 11.1744C11.4412 11.0299 10.9519 10.8853 10.4516 10.7408C10.4294 10.7186 10.4182 10.7074 10.396 10.6963Z" fill="#F28482"/>
<path d="M7.09371 3.26895C7.80532 3.28007 8.42797 3.51357 8.96167 3.99168C9.19517 4.19181 9.22853 4.44755 9.05063 4.63657C8.88384 4.82559 8.65035 4.81447 8.41685 4.61433C7.62741 3.92496 6.57113 3.93608 5.77057 4.62545C5.54819 4.82559 5.30358 4.82559 5.1368 4.63657C4.97001 4.44755 5.00337 4.20293 5.22575 4.00279C5.73721 3.52468 6.37099 3.28007 7.09371 3.26895Z" fill="#F28482"/>
<path d="M7.16037 4.66992C7.44946 4.68104 7.76079 4.79223 8.01652 5.03684C8.20554 5.21474 8.2389 5.45936 8.08323 5.64838C7.92757 5.82628 7.68296 5.8374 7.4717 5.67062C7.19373 5.44824 6.97135 5.44824 6.69338 5.68174C6.49324 5.8374 6.25975 5.82628 6.10408 5.6595C5.94842 5.49272 5.95954 5.2481 6.13744 5.0702C6.37093 4.81447 6.73786 4.66992 7.16037 4.66992Z" fill="#F28482"/>
</g>
<defs>
<clipPath id="clip0_375_498">
<rect width="16" height="16" fill="white"/>
</clipPath>
</defs>
</svg>
