<svg width="16" height="13" viewBox="0 0 16 13" fill="none" xmlns="http://www.w3.org/2000/svg">
<g clip-path="url(#clip0_236_370)">
<path d="M7.64004 7.61371C8.70818 6.54403 8.70818 4.80973 7.64004 3.74005C6.57189 2.67037 4.84009 2.67037 3.77194 3.74005C2.70379 4.80973 2.70379 6.54403 3.77194 7.61371C4.84009 8.68339 6.57189 8.68339 7.64004 7.61371Z" fill="#FAAF40"/>
<path d="M5.70553 2.19393C5.51479 2.19393 5.36108 2.04 5.36108 1.84899V0.346832C5.36108 0.155817 5.51479 0.00189209 5.70553 0.00189209C5.89627 0.00189209 6.04997 0.155817 6.04997 0.346832V1.84899C6.04997 2.03815 5.89627 2.19393 5.70553 2.19393Z" fill="#FAAF40"/>
<path d="M1.84444 6.05873H0.344444C0.153704 6.05873 0 5.90481 0 5.71379C0 5.52278 0.153704 5.36885 0.344444 5.36885H1.84444C2.03519 5.36885 2.18889 5.52278 2.18889 5.71379C2.19074 5.90481 2.03519 6.05873 1.84444 6.05873Z" fill="#FAAF40"/>
<path d="M2.97604 3.32518C2.88715 3.32518 2.80011 3.2918 2.73159 3.22318L1.67048 2.16055C1.5353 2.02517 1.5353 1.80633 1.67048 1.67281C1.80567 1.53743 2.02418 1.53743 2.15752 1.67281L3.21863 2.73545C3.35381 2.87083 3.35381 3.08966 3.21863 3.22318C3.15196 3.2918 3.06492 3.32518 2.97604 3.32518Z" fill="#FAAF40"/>
<path d="M1.91493 9.85678C1.82604 9.85678 1.739 9.8234 1.67048 9.75478C1.5353 9.6194 1.5353 9.40057 1.67048 9.26705L2.73159 8.20441C2.86678 8.06903 3.0853 8.06903 3.21863 8.20441C3.35381 8.33979 3.35381 8.55862 3.21863 8.69215L2.15937 9.75478C2.09085 9.82155 2.00381 9.85678 1.91493 9.85678Z" fill="#FAAF40"/>
<path d="M8.43519 3.32518C8.3463 3.32518 8.25926 3.2918 8.19074 3.22318C8.05556 3.0878 8.05556 2.86897 8.19074 2.73545L9.25186 1.67281C9.38704 1.53743 9.60556 1.53743 9.73889 1.67281C9.87408 1.80819 9.87408 2.02702 9.73889 2.16055L8.67778 3.22318C8.61297 3.2918 8.52408 3.32518 8.43519 3.32518Z" fill="#FAAF40"/>
<path d="M13.3241 6.7412C13.3223 6.7412 13.3223 6.7412 13.3204 6.7412C13.3204 6.71709 13.3241 6.69483 13.3241 6.67258C13.3241 4.83661 11.8389 3.34929 10.0056 3.34929C8.17228 3.34929 6.68709 4.83661 6.68709 6.67258C6.68709 6.67443 6.68709 6.67629 6.68709 6.67814C5.25006 6.74491 4.10376 7.92994 4.10376 9.38574C4.10376 10.886 5.31672 12.1007 6.81487 12.1007H13.326C14.8038 12.1007 16.0019 10.9009 16.0019 9.42097C16.0001 7.94107 14.8019 6.7412 13.3241 6.7412Z" fill="#42BFEC"/>
</g>
<defs>
<clipPath id="clip0_236_370">
<rect width="16" height="12.1026" fill="white"/>
</clipPath>
</defs>
</svg>
