<!DOCTYPE svg PUBLIC "-//W3C//DTD SVG 1.1//EN" "http://www.w3.org/Graphics/SVG/1.1/DTD/svg11.dtd">
<!-- Uploaded to: SVG Repo, www.svgrepo.com, Transformed by: SVG Repo Mixer Tools -->
<svg fill="#325407" height="800px" width="800px" version="1.1" xmlns="http://www.w3.org/2000/svg" viewBox="-112 -112 624.00 624.00" xmlns:xlink="http://www.w3.org/1999/xlink" enable-background="new 0 0 400 400" stroke="#325407">
<g id="SVGRepo_bgCarrier" stroke-width="0">
<rect x="-112" y="-112" width="624.00" height="624.00" rx="312" fill="#d1e7d0" strokewidth="0"/>
</g>
<g id="SVGRepo_tracerCarrier" stroke-linecap="round" stroke-linejoin="round"/>
<g id="SVGRepo_iconCarrier"> <path d="M328.959,163.22L216.667,79L246,57l-12-16l-34,25.5L166,41l-12,16l29.333,22L71.041,163.22L31.978,339H0 v20h27.534H60h86.93l30-80h46.14l30,80H340h32.466H400v-20h-31.979L328.959,163.22z M340,339h-73.07l-30-80h-73.86l-30,80H60h-7.534 l36.493-164.22L200,91.5l111.041,83.28L347.534,339H340z"/> </g>
</svg>