<!DOCTYPE svg PUBLIC "-//W3C//DTD SVG 1.1//EN" "http://www.w3.org/Graphics/SVG/1.1/DTD/svg11.dtd">
<!-- Uploaded to: SVG Repo, www.svgrepo.com, Transformed by: SVG Repo Mixer Tools -->
<svg fill="#ca2f2f" width="800px" height="800px" viewBox="-16.12 -16.12 84.24 84.24" xmlns="http://www.w3.org/2000/svg" stroke="#ca2f2f">
<g id="SVGRepo_bgCarrier" stroke-width="0">
<rect x="-16.12" y="-16.12" width="84.24" height="84.24" rx="42.12" fill="#ffffff" strokewidth="0"/>
</g>
<g id="SVGRepo_tracerCarrier" stroke-linecap="round" stroke-linejoin="round"/>
<g id="SVGRepo_iconCarrier">
<path d="M16.4,10h3.2a.76.76,0,0,0,.8-.8V6.8H31.6V9.2a.76.76,0,0,0,.8.8h3.2a.76.76,0,0,0,.8-.8V6.8A4.81,4.81,0,0,0,31.6,2H20.4a4.81,4.81,0,0,0-4.8,4.8V9.2A.76.76,0,0,0,16.4,10Z"/>
<path d="M26,36.66a1.79,1.79,0,1,0,1.8,1.79A1.76,1.76,0,0,0,26,36.66Z"/>
<rect x="24.22" y="26.49" width="3.59" height="8.97" rx="0.6"/>
<path d="M45.2,14.8H6.8A4.81,4.81,0,0,0,2,19.6V45.2A4.81,4.81,0,0,0,6.8,50H45.2A4.81,4.81,0,0,0,50,45.2V19.6A4.81,4.81,0,0,0,45.2,14.8ZM39.7,45H12.33c-1.5,0-2.34-1.92-1.5-3.29L24.52,19.62a1.7,1.7,0,0,1,3,0L41.19,41.74A2.1,2.1,0,0,1,39.7,45Z"/>
</g>
</svg>