<!DOCTYPE svg PUBLIC "-//W3C//DTD SVG 1.1//EN" "http://www.w3.org/Graphics/SVG/1.1/DTD/svg11.dtd">
<!-- Uploaded to: SVG Repo, www.svgrepo.com, Transformed by: SVG Repo Mixer Tools -->
<svg fill="#ffffff" width="800px" height="800px" viewBox="-12.8 -12.8 153.60 153.60" version="1.1" xml:space="preserve" xmlns="http://www.w3.org/2000/svg" xmlns:xlink="http://www.w3.org/1999/xlink" stroke="#ffffff">
<g id="SVGRepo_bgCarrier" stroke-width="0">
<rect x="-12.8" y="-12.8" width="153.60" height="153.60" rx="76.8" fill="#f79940" strokewidth="0"/>
</g>
<g id="SVGRepo_tracerCarrier" stroke-linecap="round" stroke-linejoin="round"/>
<g id="SVGRepo_iconCarrier"> <g id="Train"/> <g id="Car"/> <g id="Taxi"/> <g id="Truk"/> <g id="Cruise"> <path d="M97.4,59.6c-0.1-0.3-0.4-0.4-0.6-0.5l-11.6-3.2l-4.7-14.1c-0.1-0.4-0.5-0.7-0.9-0.7H70v-9h5.5v-2H69h-9h-7.5v2H59v9H48.5 c-0.4,0-0.8,0.3-0.9,0.7l-4.7,14.1L31.2,59c-0.3,0.1-0.5,0.3-0.6,0.5c-0.1,0.3-0.1,0.5,0,0.8l14.5,37c0.1,0.4,0.5,0.6,0.9,0.6h36 c0.4,0,0.8-0.3,0.9-0.6l14.5-37C97.5,60.1,97.5,59.8,97.4,59.6z M61,32h7v9h-7V32z M45.2,55.2L49.2,43H60h9h9.8l4.1,12.2L64.3,50 c-0.1,0-0.2,0-0.3,0s-0.2,0-0.3,0L45.2,55.2z M32.8,60.7L63,52.3V96H46.7L32.8,60.7z M81.3,96H65V52.3l30.2,8.4L81.3,96z"/> </g> <g id="Railway"/> <g id="Trem"/> <g id="Bus"/> <g id="Yatch"/> <g id="pLANE"/> <g id="Bicycle"/> <g id="Halte"/> <g id="Bus_Stop"/> <g id="Station"/> <g id="Airport"/> <g id="Layer_17"/> </g>
</svg>